<?xml version="1.0" standalone="no"?>
<!DOCTYPE svg PUBLIC "-//W3C//DTD SVG 1.1//EN" "http://www.w3.org/Graphics/SVG/1.1/DTD/svg11.dtd" >
<svg>
<metadata>
Created by FontForge 20090914 at Tue Jul 19 06:10:46 2016
 By www-data
Copyright (c) 2007 by True Corporation PLC.. All rights reserved.
</metadata>
<defs>
<font id="TrueBold" horiz-adv-x="0" >
  <font-face 
    font-family="True Bold"
    font-weight="400"
    font-stretch="normal"
    units-per-em="2048"
    panose-1="2 0 5 6 0 0 0 2 0 4"
    ascent="1638"
    descent="-410"
    x-height="713"
    cap-height="965"
    bbox="-922 -625 1595 1599"
    underline-thickness="72"
    underline-position="-123"
    unicode-range="U+0020-U+F880"
  />
<missing-glyph horiz-adv-x="1599" 
d="M100 0v1599h1399v-1599h-1399zM1401 100v1399h-1200v-1399h1200z" />
    <glyph glyph-name="saraueesp1" unicode="&#xe37;&#xe48;" 
d="M-750 922v133h291v92h135v-92h62v92h201v-225h-689zM-362 1198v184h200v-184h-200z" />
    <glyph glyph-name=".notdef" horiz-adv-x="1599" 
d="M100 0v1599h1399v-1599h-1399zM1401 100v1399h-1200v-1399h1200z" />
    <glyph glyph-name="space" unicode=" " horiz-adv-x="614" 
 />
    <glyph glyph-name="space" unicode="&#xa0;" horiz-adv-x="614" 
 />
    <glyph glyph-name="exclam" unicode="!" horiz-adv-x="539" 
d="M346 283h-158l-24 682h213zM172 0v193h195v-193h-195z" />
    <glyph glyph-name="quotedbl" unicode="&#x22;" horiz-adv-x="666" 
d="M375 618v347h168v-347h-168zM121 618v347h170v-347h-170z" />
    <glyph glyph-name="numbersign" unicode="#" horiz-adv-x="768" 
d="M594 571l-23 -178h111v-110h-127l-39 -283h-123l41 283h-141l-41 -283h-123l41 283h-125v110h139l25 178h-121v111h137l39 283h123l-39 -283h141l39 283h121l-39 -283h113v-111h-129zM332 571l-23 -178h140l24 178h-141z" />
    <glyph glyph-name="dollar" unicode="$" horiz-adv-x="768" 
d="M705 274c0 -45.333 -7.16895 -84.6689 -21.502 -118.002s-34.166 -61.5 -59.499 -84.5s-55.166 -41.167 -89.499 -54.5s-71.166 -22.333 -110.499 -27v-115h-66v111c-3.33301 -1.33301 -6.33301 -2 -9 -2h-7c-26 0 -49 0.833008 -69 2.5s-39.167 4 -57.5 7
s-37 6.83301 -56 11.5l-63.5 15l17 175c34 -17.333 69.5 -31.666 106.5 -42.999s74.5 -17 112.5 -17h12c4 0 8.66699 0.666992 14 2v260l-96 38.5c-32.667 13.667 -62.5 31.167 -89.5 52.5s-49.167 47.833 -66.5 79.5s-26 71.167 -26 118.5c0 48 7.66699 89.333 23 124
s35.666 63.834 60.999 87.501s54.833 42 88.5 55s68.834 21.833 105.501 26.5v102h66v-100c40 0 78.833 -2.66699 116.5 -8s73.834 -14.333 108.501 -27l-18 -158c-62.667 27.333 -128.334 41 -197.001 41c-4 0 -7.33301 -0.666992 -10 -2v-256l95 -38
c33.333 -13.333 63.666 -30.833 90.999 -52.5s50 -49 68 -82s27 -74.5 27 -124.5zM357.998 814.997c-21.333 -9.33301 -39.168 -23.5 -53.501 -42.5s-21.5 -44.5 -21.5 -76.5c0 -22.667 6.83301 -41.5 20.5 -56.5s31.834 -28.167 54.501 -39.5v215zM503.996 259.997
c0 25.333 -7.66699 46.334 -23 63.001s-34.333 31.334 -57 44.001v-211c22.667 9.33301 41.667 22.666 57 39.999s23 38.666 23 63.999z" />
    <glyph glyph-name="percent" unicode="%" horiz-adv-x="1382" 
d="M1237 238c0 -80.667 -19.667 -143.167 -59 -187.5s-96 -66.5 -170 -66.5c-74.667 0 -132 22.167 -172 66.5s-60 106.833 -60 187.5c0 80 20 142.333 60 187s97.333 67 172 67c74 0 130.667 -22.333 170 -67s59 -107 59 -187zM453 -31h-115l598 1026h113zM608 727
c0 -80.667 -19.667 -143.167 -59 -187.5s-96 -66.5 -170 -66.5c-74.667 0 -132 22.167 -172 66.5s-60 106.833 -60 187.5s20 143.167 60 187.5s97.333 66.5 172 66.5c74 0 130.667 -22.167 170 -66.5s59 -106.833 59 -187.5zM1094 238c0 14.667 -1 30.334 -3 47.001
s-6.16699 32.167 -12.5 46.5s-15.166 26.166 -26.499 35.499s-26 14 -44 14c-18.667 0 -33.667 -4.66699 -45 -14s-20.166 -21.166 -26.499 -35.499s-10.666 -29.833 -12.999 -46.5s-3.5 -32.334 -3.5 -47.001c0 -15.333 1.16699 -31.333 3.5 -48
s6.66602 -32.167 12.999 -46.5s15.166 -26.166 26.499 -35.499s26.333 -14 45 -14c18 0 32.667 4.66699 44 14s20.166 21.166 26.499 35.499s10.5 29.833 12.5 46.5s3 32.667 3 48zM465 727c0 14.667 -1 30.334 -3 47.001s-6 32.167 -12 46.5s-14.667 26.166 -26 35.499
s-26.333 14 -45 14s-33.667 -4.66699 -45 -14s-20.166 -21.166 -26.499 -35.499s-10.666 -29.833 -12.999 -46.5s-3.5 -32.334 -3.5 -47.001s1.16699 -30.334 3.5 -47.001s6.66602 -32.167 12.999 -46.5s15.166 -26.166 26.499 -35.499s26.333 -14 45 -14
s33.667 4.66699 45 14s20 21.166 26 35.499s10 29.833 12 46.5s3 32.334 3 47.001z" />
    <glyph glyph-name="ampersand" unicode="&#x26;" horiz-adv-x="997" 
d="M756 0l-65.9971 86.002c-34 -35.333 -74.333 -61.166 -121 -77.499s-93.667 -24.5 -141 -24.5c-48 0 -93 6 -135 18s-78.667 29.833 -110 53.5s-56 53 -74 88s-27 75.167 -27 120.5c0 29.333 3.5 56.666 10.5 81.999s18.5 48.833 34.5 70.5s37 42 63 61
s58.333 36.5 97 52.5l-53.5 50c-16.333 16 -30.5 32.833 -42.5 50.5s-21.5 37 -28.5 58s-10.5 45.5 -10.5 73.5c0 36 8.83301 67.667 26.5 95s40.5 50.166 68.5 68.499s59.333 32.166 94 41.499s69 14 103 14s67.667 -4 101 -12s63.166 -20.667 89.499 -38
s47.666 -39.833 63.999 -67.5s24.5 -60.834 24.5 -99.501c0 -33.333 -4.83301 -62.666 -14.5 -87.999s-22.834 -48 -39.501 -68s-36.334 -38 -59.001 -54s-47 -31.333 -73 -46l176 -195c23.333 28 39 60.667 47 98s12.667 75 14 113h168
c-2 -62 -13.167 -120.833 -33.5 -176.5s-50.166 -107.167 -89.499 -154.5l174 -193h-237zM555.003 745.002c0 17.333 -3.00195 32.3311 -9.00195 44.998s-13.833 23.167 -23.5 31.5s-20.834 14.5 -33.501 18.5s-26 6 -40 6s-27.667 -2 -41 -6s-25.166 -10.167 -35.499 -18.5
s-18.666 -19 -24.999 -32s-9.5 -28.5 -9.5 -46.5c0 -13.333 3 -26.166 9 -38.499s13.5 -24.166 22.5 -35.499s18.667 -22.166 29 -32.499l29.5 -30.5c12 6 25.5 14.167 40.5 24.5s28.833 21.666 41.5 33.999s23.334 25.333 32.001 39s13 27.5 13 41.5zM385.001 424
c-16 -8 -31 -16.999 -45 -26.999s-26.333 -21.333 -37 -34s-19.167 -26.667 -25.5 -42s-9.5 -32.333 -9.5 -51c0 -21.333 4.33301 -40.833 13 -58.5s20.5 -32.834 35.5 -45.501s32.333 -22.334 52 -29.001s40.834 -10 63.501 -10c32 0 62.667 4.33301 92 13
s54.666 23.334 75.999 44.001z" />
    <glyph glyph-name="quotesingle" unicode="'" horiz-adv-x="385" 
d="M109 618v347h167v-347h-167z" />
    <glyph glyph-name="parenleft" unicode="(" horiz-adv-x="461" 
d="M274 -193c-34 46.667 -64.667 94 -92 142s-50.5 97.5 -69.5 148.5s-33.667 103.667 -44 158s-15.5 111.166 -15.5 170.499c0 64 5.16699 123.333 15.5 178s25 106.834 44 156.501s42.167 97.5 69.5 143.5s58 92.667 92 140h177c-30 -47.333 -57.333 -94 -82 -140
s-45.834 -93.833 -63.501 -143.5s-31.334 -101.834 -41.001 -156.501s-14.5 -114 -14.5 -178c0 -59.333 4.83301 -116.166 14.5 -170.499s23.334 -107 41.001 -158s38.834 -100.5 63.501 -148.5s52 -95.333 82 -142h-177z" />
    <glyph glyph-name="parenright" unicode=")" horiz-adv-x="461" 
d="M406 426c0 -59.333 -5.16699 -116.166 -15.5 -170.499s-25 -107 -44 -158s-42.167 -100.5 -69.5 -148.5s-58.333 -95.333 -93 -142h-174c29.333 46.667 56.333 94 81 142s45.834 97.5 63.501 148.5s31.5 103.667 41.5 158s15 111.166 15 170.499c0 64 -5 123.333 -15 178
s-23.833 106.834 -41.5 156.501s-38.834 97.5 -63.501 143.5s-51.667 92.667 -81 140h174c34.667 -47.333 65.667 -94 93 -140s50.5 -93.833 69.5 -143.5s33.667 -101.834 44 -156.501s15.5 -114 15.5 -178z" />
    <glyph glyph-name="asterisk" unicode="*" horiz-adv-x="768" 
d="M477 657l133 -149l-127 -90l-98 172l-106 -172l-125 90l135 149l-189 43l45 144l185 -80l-23 201h158l-25 -199l185 78l45 -144z" />
    <glyph glyph-name="plus" unicode="+" horiz-adv-x="829" 
d="M487 279v-279h-145v279h-279v143h279v278h145v-278h279v-143h-279z" />
    <glyph glyph-name="comma" unicode="," horiz-adv-x="385" 
d="M195 -152h-162l88 345h201z" />
    <glyph glyph-name="hyphen" unicode="-" horiz-adv-x="461" 
d="M49 295v154h363v-154h-363z" />
    <glyph glyph-name="period" unicode="." horiz-adv-x="385" 
d="M96 0v193h193v-193h-193z" />
    <glyph glyph-name="slash" unicode="/" horiz-adv-x="539" 
d="M172 -16h-143l338 997h143z" />
    <glyph glyph-name="zero" unicode="0" horiz-adv-x="768" 
d="M721 479c0 -37.333 -1.83008 -75.333 -5.49707 -114s-10.334 -76.334 -20.001 -113.001s-22.667 -71.334 -39 -104.001s-37 -61.167 -62 -85.5s-54.833 -43.5 -89.5 -57.5s-75.334 -21 -122.001 -21c-49.333 0 -91.833 7.66699 -127.5 23s-66 35.666 -91 60.999
s-45 54.833 -60 88.5s-26.667 68.834 -35 105.501s-13.833 73.667 -16.5 111s-4 72.666 -4 105.999c0 60.667 5.16699 120.834 15.5 180.501s28.166 113.334 53.499 161.001s59.5 86.334 102.5 116.001s97.167 44.5 162.5 44.5c47.333 0 88.5 -7.16699 123.5 -21.5
s65 -33.833 90 -58.5s45.5 -53.5 61.5 -86.5s28.667 -68 38 -105s15.833 -75.333 19.5 -115s5.5 -78.167 5.5 -115.5zM526.003 479c0 20.667 -0.166992 44 -0.5 70s-1.83301 52.333 -4.5 79s-6.83398 52.5 -12.501 77.5s-13.834 47.333 -24.501 67s-24.167 35.5 -40.5 47.5
s-36.5 18 -60.5 18c-23.333 0 -43.166 -6 -59.499 -18s-29.666 -27.833 -39.999 -47.5s-18.333 -42 -24 -67s-9.83398 -50.833 -12.501 -77.5s-4.16699 -53 -4.5 -79s-0.5 -49.333 -0.5 -70c0 -20 0.166992 -42.667 0.5 -68s1.83301 -51 4.5 -77s6.66699 -51.5 12 -76.5
s13.333 -47.167 24 -66.5s24 -34.833 40 -46.5s36 -17.5 60 -17.5s44.333 5.83301 61 17.5s30.167 27.167 40.5 46.5s18.333 41.5 24 66.5s9.83398 50.5 12.501 76.5s4.16699 51.667 4.5 77s0.5 48 0.5 68z" />
    <glyph glyph-name="one" unicode="1" horiz-adv-x="768" 
d="M369 0v745l-162 -133l-98 125l282 228h172v-965h-194z" />
    <glyph glyph-name="two" unicode="2" horiz-adv-x="768" 
d="M57 0l0.00195312 162.002l62 57l86.5 81c31 30 62.5 62.167 94.5 96.5s61 69 87 104s47.167 69.5 63.5 103.5s24.5 66 24.5 96c0 22 -4.5 41.167 -13.5 57.5s-21 29.666 -36 39.999s-32 18.166 -51 23.499s-38.167 8 -57.5 8c-40.667 0 -80 -7.66699 -118 -23
s-73 -33.333 -105 -54l-16 159c44 22.667 90.333 40 139 52s98 18 148 18c46 0 87.667 -5.83301 125 -17.5s69.166 -29.167 95.499 -52.5s46.666 -52.5 60.999 -87.5s21.5 -76.167 21.5 -123.5c0 -51.333 -11.667 -101.333 -35 -150s-52.833 -96 -88.5 -142
s-75 -90.5 -118 -133.5l-123.5 -122.5h395v-152h-641z" />
    <glyph glyph-name="three" unicode="3" horiz-adv-x="768" 
d="M684 270c0 -57.333 -11.6709 -104.501 -35.0039 -141.501s-53.166 -66.167 -89.499 -87.5s-76.166 -36.166 -119.499 -44.499s-85 -12.5 -125 -12.5c-42 0 -85.833 2.5 -131.5 7.5s-86.5 12.5 -122.5 22.5l13 166c32.667 -13.333 66.834 -24.166 102.501 -32.499
s72.5 -12.5 110.5 -12.5c20.667 0 42.834 2.5 66.501 7.5s45.834 13 66.501 24s37.834 25.167 51.501 42.5s20.5 38.333 20.5 63c0 28 -5.33301 51.667 -16 71s-25.5 35 -44.5 47s-41.5 20.667 -67.5 26s-54.333 8 -85 8h-95v151h88c64.667 0 116.667 10.667 156 32
s59 53 59 95c0 24 -4.5 44.167 -13.5 60.5s-21.167 29.5 -36.5 39.5s-33 17 -53 21s-40.667 6 -62 6c-39.333 0 -77 -4.33301 -113 -13s-71 -21.334 -105 -38.001l-12 156c39.333 14.667 81.666 26.167 126.999 34.5s93 12.5 143 12.5c30 0 63.333 -3.16699 100 -9.5
s71.167 -18.5 103.5 -36.5s59.5 -43.167 81.5 -75.5s33 -74.5 33 -126.5c0 -32.667 -4.83301 -61.334 -14.5 -86.001s-22.667 -46 -39 -64s-35.333 -33.333 -57 -46s-44.834 -23.667 -69.501 -33v-4c30.667 -4 57.5 -12.667 80.5 -26s42.167 -30.166 57.5 -50.499
s26.833 -43.5 34.5 -69.5s11.5 -54 11.5 -84z" />
    <glyph glyph-name="four" unicode="4" horiz-adv-x="768" 
d="M623 201v-201h-185v201h-415v155l360 609h240v-621h122v-143h-122zM438 764h-2l-239 -420h241v420z" />
    <glyph glyph-name="five" unicode="5" horiz-adv-x="768" 
d="M700 311c0 -45.333 -7.83008 -87.999 -23.4971 -127.999s-39.167 -74.667 -70.5 -104s-70.333 -52.5 -117 -69.5s-101 -25.5 -163 -25.5c-38 0 -77.167 2.5 -117.5 7.5s-76.5 11.167 -108.5 18.5l4 174c24 -10 52.333 -20.667 85 -32s70 -17 112 -17
c24.667 0 49.5 3.16699 74.5 9.5s47.167 16.166 66.5 29.499s35.166 30.833 47.499 52.5s18.5 47.834 18.5 78.501c0 31.333 -6.33301 57.666 -19 78.999s-29.334 38.666 -50.001 51.999s-44.334 22.833 -71.001 28.5s-53.667 8.5 -81 8.5c-30 0 -59.333 -2.16699 -88 -6.5
s-57.334 -11.166 -86.001 -20.499l10 519h555v-144h-373l-4 -207l38.5 7c14.333 2.66699 30.833 4 49.5 4c34 0 69.167 -4.66699 105.5 -14s69.833 -25.833 100.5 -49.5s55.834 -55.667 75.501 -96s29.5 -91.833 29.5 -154.5z" />
    <glyph glyph-name="six" unicode="6" horiz-adv-x="768" 
d="M709 330c0 -52 -6.50098 -99.334 -19.501 -142.001s-32.667 -79.167 -59 -109.5s-59.666 -53.666 -99.999 -69.999s-87.5 -24.5 -141.5 -24.5c-67.333 0 -122.166 12.833 -164.499 38.5s-75.666 59.5 -99.999 101.5s-41 89.833 -50 143.5s-13.5 108.5 -13.5 164.5
c0 44 2.5 88 7.5 132s13.5 86.333 25.5 127s28 78.667 48 114s44.667 66 74 92s63.833 46.5 103.5 61.5s85.5 22.5 137.5 22.5c36 0 70.667 -2.66699 104 -8s67 -14.333 101 -27l-27 -155c-24.667 11.333 -50.667 20.5 -78 27.5s-57.333 10.5 -90 10.5
c-42 0 -77.333 -8.83301 -106 -26.5s-51.834 -40.667 -69.501 -69s-30.667 -60.333 -39 -96s-13.166 -71.5 -14.499 -107.5l2 -2c23.333 33.333 50.166 57.833 80.499 73.5s66.166 23.5 107.499 23.5c45.333 0 85.5 -7 120.5 -21s64.333 -33.833 88 -59.5
s41.667 -56.667 54 -93s18.5 -76.833 18.5 -121.5zM515.999 298.999c0 23.333 -2.49609 46.0029 -7.49609 68.0029s-12.833 41.5 -23.5 58.5s-24.334 30.5 -41.001 40.5s-36.334 15 -59.001 15c-23.333 0 -43.333 -5 -60 -15s-30.334 -23.333 -41.001 -40
s-18.334 -36 -23.001 -58s-7 -45 -7 -69c0 -23.333 2.5 -45.333 7.5 -66s13 -38.834 24 -54.501s25 -28.167 42 -37.5s37.5 -14 61.5 -14c22.667 0 42 5 58 15s29.167 23.167 39.5 39.5s17.833 34.666 22.5 54.999s7 41.166 7 62.499z" />
    <glyph glyph-name="seven" unicode="7" horiz-adv-x="768" 
d="M348 0h-211l359 813h-426v152h620v-160z" />
    <glyph glyph-name="eight" unicode="8" horiz-adv-x="768" 
d="M721 264c0 -48.667 -8.33301 -90.5 -25 -125.5s-39.834 -64 -69.501 -87s-64.667 -40 -105 -51s-84.5 -16.5 -132.5 -16.5c-47.333 0 -91.5 5.33301 -132.5 16s-77 27.167 -108 49.5s-55.333 51 -73 86s-26.5 77.167 -26.5 126.5c0 54 14.667 100.167 44 138.5
s73.333 71.5 132 99.5v4c-48 21.333 -86.5 51.333 -115.5 90s-43.5 83 -43.5 133c0 42.667 7.66699 80 23 112s36.833 58.5 64.5 79.5s60.167 36.667 97.5 47s78 15.5 122 15.5c42.667 0 83.5 -4.5 122.5 -13.5s73.333 -22.833 103 -41.5s53.334 -42.667 71.001 -72
s26.5 -64 26.5 -104c0 -22 -3.5 -44.5 -10.5 -67.5s-17.167 -44.833 -30.5 -65.5s-30 -39.667 -50 -57s-43.333 -31.333 -70 -42v-2c64 -30 111 -65.5 141 -106.5s45 -89.5 45 -145.5zM510 717c0 36 -10.502 65.166 -31.502 87.499s-50.167 33.5 -87.5 33.5
c-17.333 0 -34.333 -2.5 -51 -7.5s-31.667 -12.333 -45 -22s-24.166 -21.834 -32.499 -36.501s-12.5 -31.667 -12.5 -51c0 -20.667 4.83301 -38.5 14.5 -53.5s21.834 -28.333 36.501 -40s31 -21.667 49 -30s35 -15.833 51 -22.5c14 5.33301 27.5 12.833 40.5 22.5
s24.667 20.834 35 33.501s18.5 26.334 24.5 41.001s9 29.667 9 45zM525.998 255.999c0 23.333 -4.6709 43.998 -14.0039 61.998s-21.666 33.667 -36.999 47s-32.5 24.833 -51.5 34.5s-38.5 17.834 -58.5 24.501c-35.333 -17.333 -64.666 -38.166 -87.999 -62.499
s-35 -56.833 -35 -97.5c0 -20 4 -38.333 12 -55s18.667 -31.167 32 -43.5s29 -21.833 47 -28.5s36.667 -10 56 -10c18.667 0 36.334 3 53.001 9s31.334 14.5 44.001 25.5s22.5 24.5 29.5 40.5s10.5 34 10.5 54z" />
    <glyph glyph-name="nine" unicode="9" horiz-adv-x="768" 
d="M709 532c0 -43.333 -2.50488 -87.1699 -7.50488 -131.503s-13.5 -86.666 -25.5 -126.999s-28 -78.166 -48 -113.499s-44.667 -66 -74 -92s-63.833 -46.5 -103.5 -61.5s-85.5 -22.5 -137.5 -22.5c-36 0 -70.5 2.66699 -103.5 8s-66.5 14 -100.5 26l24 156
c25.333 -11.333 51.833 -20.666 79.5 -27.999s57.834 -11 90.501 -11c41.333 0 76.333 8.83301 105 26.5s51.834 40.834 69.501 69.501s30.834 60.667 39.501 96s13.667 71 15 107l-2 2c-23.333 -34 -50.166 -58.5 -80.499 -73.5s-66.166 -22.5 -107.499 -22.5
c-45.333 0 -85.5 7 -120.5 21s-64.333 33.833 -88 59.5s-41.667 56.667 -54 93s-18.5 76.833 -18.5 121.5c0 52 6.5 99.333 19.5 142s32.667 79.167 59 109.5s59.666 53.666 99.999 69.999s87.5 24.5 141.5 24.5c66.667 0 121.334 -12.667 164.001 -38
s76.167 -59 100.5 -101s41 -90 50 -144s13.5 -109.333 13.5 -166zM515.995 665.996c0 22.667 -2.49902 44.5 -7.49902 65.5s-13 39.333 -24 55s-25 28.167 -42 37.5s-37.5 14 -61.5 14c-22.667 0 -42 -5 -58 -15s-29.167 -23 -39.5 -39s-17.833 -34.333 -22.5 -55
s-7 -41.667 -7 -63c0 -24 2.5 -47 7.5 -69s12.833 -41.5 23.5 -58.5s24.167 -30.5 40.5 -40.5s36.166 -15 59.499 -15s43.333 5 60 15s30.167 23.333 40.5 40s18 36.167 23 58.5s7.5 45.5 7.5 69.5z" />
    <glyph glyph-name="colon" unicode=":" horiz-adv-x="385" 
d="M96 518v195h193v-195h-193zM96 0v193h193v-193h-193z" />
    <glyph glyph-name="semicolon" unicode=";" horiz-adv-x="385" 
d="M96 518v195h193v-195h-193zM195 -152h-162l88 345h201z" />
    <glyph glyph-name="less" unicode="&#x3c;" horiz-adv-x="829" 
d="M63 291v119l703 301v-142l-516 -219l516 -221v-139z" />
    <glyph glyph-name="equal" unicode="=" horiz-adv-x="829" 
d="M63 428v143h703v-143h-703zM63 127v143h703v-143h-703z" />
    <glyph glyph-name="greater" unicode="&#x3e;" horiz-adv-x="829" 
d="M63 -10v139l517 221l-517 219v142l703 -301v-119z" />
    <glyph glyph-name="question" unicode="?" horiz-adv-x="690" 
d="M657 733c0 -32 -6.1709 -61.1709 -18.5039 -87.5039s-27.666 -51.166 -45.999 -74.499s-38 -45.833 -59 -67.5s-40 -43.834 -57 -66.501s-30.833 -46.5 -41.5 -71.5s-14.334 -52.5 -11.001 -82.5h-170c0 32.667 2.83301 61.834 8.5 87.501s13.167 48.834 22.5 69.501
s20 39.334 32 56.001s24.333 32.334 37 47.001l38.001 40s23.667 25.667 33 39s17 27.333 23 42s9 31 9 49c0 22.667 -4.66699 41.834 -14 57.501s-21.5 28.5 -36.5 38.5s-32 17.333 -51 22s-38.5 7 -58.5 7c-37.333 0 -73.666 -5.5 -108.999 -16.5s-70 -24.167 -104 -39.5
l-14 154c44 13.333 88.833 24.166 134.5 32.499s91.5 12.5 137.5 12.5c40 0 78.833 -4.5 116.5 -13.5s71.334 -23.5 101.001 -43.5s53.334 -45.667 71.001 -77s26.5 -69.333 26.5 -114zM241.996 -0.00390625v193h194v-193h-194z" />
    <glyph glyph-name="at" unicode="@" horiz-adv-x="1106" 
d="M1055 575c0 -47.333 -6.50293 -89.6621 -19.5029 -126.995s-29.833 -70.333 -50.5 -99s-44 -53 -70 -73s-51.833 -36.333 -77.5 -49s-50.167 -22 -73.5 -28s-42.333 -9 -57 -9c-19.333 0 -36.5 6.16699 -51.5 18.5s-23.167 30.166 -24.5 53.499h-2
c-17.333 -19.333 -37.666 -36.166 -60.999 -50.499s-49.666 -21.5 -78.999 -21.5c-28.667 0 -56 5.66699 -82 17s-48.833 27.166 -68.5 47.499s-35.334 44.5 -47.001 72.5s-17.5 59 -17.5 93c0 45.333 7.5 88.166 22.5 128.499s35.333 75.5 61 105.5
s55.834 53.833 90.501 71.5s71.667 26.5 111 26.5c34 0 64.667 -7.5 92 -22.5s50.666 -36.833 69.999 -65.5l16 65h115l-76 -336c-2 -7.33301 -3.83301 -15.5 -5.5 -24.5s-2.5 -16.5 -2.5 -22.5s1.33301 -10.833 4 -14.5s8 -5.5 16 -5.5c16.667 0 34.334 4.66699 53.001 14
s35.5 24 50.5 44s27.5 45.333 37.5 76s15 67.667 15 111c0 56.667 -11 103.167 -33 139.5s-50.167 65.166 -84.5 86.499s-72.833 36.166 -115.5 44.499s-84.334 12.5 -125.001 12.5c-58 0 -111 -10.167 -159 -30.5s-89.167 -47.666 -123.5 -81.999s-61 -73.833 -80 -118.5
s-28.5 -91.334 -28.5 -140.001c0 -54 9 -103.667 27 -149s42.833 -84.5 74.5 -117.5s69.334 -58.833 113.001 -77.5s91.5 -28 143.5 -28c27.333 0 55.166 1.16699 83.499 3.5s56.333 6.66602 84 12.999s54.334 15.166 80.001 26.499s49.5 26.333 71.5 45h117
c-25.333 -38 -54 -70.5 -86 -97.5s-66.5 -49.333 -103.5 -67s-76.167 -30.5 -117.5 -38.5s-84.333 -12 -129 -12c-60 0 -119.833 10.333 -179.5 31s-113.5 51.834 -161.5 93.501s-86.833 93.667 -116.5 156s-44.5 135.166 -44.5 218.499c0 68.667 13.333 133.334 40 194.001
s63.667 113.5 111 158.5s103.833 80.5 169.5 106.5s137.167 39 214.5 39c56 0 111.833 -7.83301 167.5 -23.5s105.834 -40 150.501 -73s81 -75.167 109 -126.5s42 -112.333 42 -183zM675.997 506.004c0 32.667 -9.33203 59.1689 -27.999 79.502s-43.667 30.5 -75 30.5
c-22.667 0 -43.334 -5.33301 -62.001 -16s-34.834 -24.5 -48.501 -41.5s-24.167 -35.833 -31.5 -56.5s-11 -41.334 -11 -62.001c0 -32.667 8.83301 -59.834 26.5 -81.501s42.834 -32.5 75.501 -32.5c22 0 42.333 5.33301 61 16s35 24.5 49 41.5s24.833 36.333 32.5 58
s11.5 43.167 11.5 64.5z" />
    <glyph glyph-name="A" unicode="A" horiz-adv-x="997" 
d="M772 0l-84 221h-391l-84 -221h-201l377 965h217l379 -965h-213zM496 772h-4l-140 -399h283z" />
    <glyph glyph-name="B" unicode="B" horiz-adv-x="844" 
d="M788 279c0 -40 -5.49902 -74.834 -16.499 -104.501s-25.667 -54.834 -44 -75.501s-39.333 -37.5 -63 -50.5s-48.167 -23 -73.5 -30s-50.333 -11.833 -75 -14.5s-47 -4 -67 -4h-336v965h336c20.667 0 42.667 -1.16699 66 -3.5s46.5 -6.83301 69.5 -13.5
s45.167 -15.667 66.5 -27s40 -26.333 56 -45s28.833 -41 38.5 -67s14.5 -56.667 14.5 -92c0 -28.667 -4.66699 -55 -14 -79s-22.5 -45.333 -39.5 -64s-37.333 -34.167 -61 -46.5s-49.834 -20.833 -78.501 -25.5v-2c33.333 -3.33301 63.5 -11.166 90.5 -23.499
s50.167 -28.166 69.5 -47.499s34.333 -41.833 45 -67.5s16 -53.167 16 -82.5zM567.001 691.999c0 28 -5.5 50.168 -16.5 66.501s-25.5 28.5 -43.5 36.5s-38 13 -60 15s-44 3 -66 3h-76v-238h80c20 0 40.667 1.5 62 4.5s41 8.66699 59 17s32.667 20.166 44 35.499
s17 35.333 17 60zM596.001 287c0 31.333 -5.83008 56.501 -17.4971 75.501s-26.834 33.667 -45.501 44s-40 17.166 -64 20.499s-48 5 -72 5h-92v-280h92c22.667 0 45.667 1.66699 69 5s44.666 10 63.999 20s35.166 23.833 47.499 41.5s18.5 40.5 18.5 68.5z" />
    <glyph glyph-name="C" unicode="C" horiz-adv-x="844" 
d="M815 14c-36 -8 -72.4971 -15.0029 -109.497 -21.0029s-74.167 -9 -111.5 -9c-78 0 -149.333 9.83301 -214 29.5s-120.167 49.334 -166.5 89.001s-82.5 89.667 -108.5 150s-39 131.166 -39 212.499c0 82.667 12.167 156.167 36.5 220.5s59.166 118.333 104.499 162
s100.666 76.834 165.999 99.501s139 34 221 34c32 0 67.5 -3.16699 106.5 -9.5s76.5 -16.166 112.5 -29.499l-14 -164c-37.333 20.667 -72.833 34.334 -106.5 41.001s-67.834 10 -102.501 10c-50 0 -95 -8.83301 -135 -26.5s-74 -42.167 -102 -73.5
s-49.5 -68.333 -64.5 -111s-22.5 -89 -22.5 -139c0 -49.333 7.5 -94.833 22.5 -136.5s36.5 -78 64.5 -109s62.333 -55.167 103 -72.5s86.667 -26 138 -26c18.667 0 38.167 1 58.5 3s40 4.83301 59 8.5s36.667 8 53 13s30.5 10.5 42.5 16.5l8 -162v0z" />
    <glyph glyph-name="D" unicode="D" horiz-adv-x="997" 
d="M934 483c0 -96 -15.167 -175.001 -45.5 -237.001s-71.166 -111.333 -122.499 -148s-110.5 -62.167 -177.5 -76.5s-137.5 -21.5 -211.5 -21.5h-264v965h264c74 0 144.5 -7.16699 211.5 -21.5s126.167 -39.666 177.5 -75.999s92.166 -85.5 122.499 -147.5
s45.5 -141 45.5 -237zM731 482.999c0 52 -9 98.5 -27 139.5s-41.667 75.667 -71 104s-63.166 49.833 -101.499 64.5s-77.5 22 -117.5 22h-109v-661h109c40 0 79.167 7.33301 117.5 22s72.166 36.167 101.499 64.5s53 63 71 104s27 87.833 27 140.5z" />
    <glyph glyph-name="E" unicode="E" horiz-adv-x="768" 
d="M113 0v965h569v-152h-377v-238h344v-151h-344v-272h379v-152h-571z" />
    <glyph glyph-name="F" unicode="F" horiz-adv-x="690" 
d="M305 813v-238h326v-151h-326v-424h-192v965h536v-152h-344z" />
    <glyph glyph-name="G" unicode="G" horiz-adv-x="997" 
d="M907 33c-51.333 -13.333 -103.333 -24.833 -156 -34.5s-105 -14.5 -157 -14.5c-78 0 -149.333 9.83301 -214 29.5s-120.167 49.334 -166.5 89.001s-82.5 89.667 -108.5 150s-39 131.166 -39 212.499c0 82.667 12.167 156.167 36.5 220.5s59.166 118.333 104.499 162
s100.666 76.834 165.999 99.501s139 34 221 34c56.667 0 107.834 -3.33301 153.501 -10s89.5 -16.334 131.5 -29.001l-13 -164c-38 17.333 -79.333 30.166 -124 38.499s-86.667 12.5 -126 12.5c-56 0 -105.833 -8.83301 -149.5 -26.5s-80.334 -42.167 -110.001 -73.5
s-52.167 -68.333 -67.5 -111s-23 -89 -23 -139c0 -49.333 7.5 -94.833 22.5 -136.5s36.5 -78 64.5 -109s62.333 -55.167 103 -72.5s86.667 -26 138 -26c26.667 0 50.334 1.33301 71.001 4s39.334 6.33398 56.001 11.001v251h-205v152h391v-520v0z" />
    <glyph glyph-name="H" unicode="H" horiz-adv-x="997" 
d="M692 0v424h-387v-424h-192v965h192v-390h387v390h195v-965h-195z" />
    <glyph glyph-name="I" unicode="I" horiz-adv-x="385" 
d="M96 0v965h193v-965h-193z" />
    <glyph glyph-name="J" unicode="J" horiz-adv-x="539" 
d="M442 229c0 -25.333 -4.49805 -52.332 -13.498 -80.999s-23.667 -55.167 -44 -79.5s-47.333 -44.5 -81 -60.5s-75.5 -24 -125.5 -24c-26.667 0 -51.167 1.16699 -73.5 3.5s-46.833 7.16602 -73.5 14.499v166c13.333 -4 27.166 -7.66699 41.499 -11s31.166 -5 50.499 -5
c31.333 0 55.5 5.66699 72.5 17s29.333 25.5 37 42.5s12.167 35.333 13.5 55s2 38.167 2 55.5v643h194v-736v0z" />
    <glyph glyph-name="K" unicode="K" horiz-adv-x="922" 
d="M655 0l-346 449h-4v-449h-192v965h192v-414l348 414h238l-395 -455l411 -510h-252z" />
    <glyph glyph-name="L" unicode="L" horiz-adv-x="690" 
d="M113 0v965h192v-813h375v-152h-567z" />
    <glyph glyph-name="M" unicode="M" horiz-adv-x="1305" 
d="M1008 0v797h-2l-261 -797h-186l-260 797l-2 -4v-793h-184v965h309l229 -732h2l230 732h311v-965h-186z" />
    <glyph glyph-name="N" unicode="N" horiz-adv-x="997" 
d="M659 0l-368 721h-4v-721h-185v965h238l369 -721h2v721h184v-965h-236z" />
    <glyph glyph-name="O" unicode="O" horiz-adv-x="1075" 
d="M1010 485c0 -73.333 -10.166 -140.499 -30.499 -201.499s-50.5 -113.833 -90.5 -158.5s-89.333 -79.334 -148 -104.001s-126 -37 -202 -37c-78 0 -146.5 12.167 -205.5 36.5s-108.333 58.5 -148 102.5s-69.5 96.833 -89.5 158.5s-30 129.5 -30 203.5
s10.167 141.333 30.5 202s50.5 112.834 90.5 156.501s89.333 77.5 148 101.5s126.667 36 204 36c75.333 0 142.166 -12.167 200.499 -36.5s107.5 -58.5 147.5 -102.5s70.5 -96.333 91.5 -157s31.5 -127.334 31.5 -200.001zM809.001 485.001
c0 42.667 -5.16992 84.5 -15.5029 125.5s-26.5 77.667 -48.5 110s-50 58.5 -84 78.5s-74.667 30 -122 30c-48 0 -89.333 -10 -124 -30s-63 -46.167 -85 -78.5s-38.167 -69 -48.5 -110s-15.5 -82.833 -15.5 -125.5c0 -43.333 4.83301 -86 14.5 -128
s25.334 -79.5 47.001 -112.5s49.834 -59.5 84.501 -79.5s77 -30 127 -30c48.667 0 90.167 10 124.5 30s62.333 46.5 84 79.5s37.334 70.5 47.001 112.5s14.5 84.667 14.5 128z" />
    <glyph glyph-name="P" unicode="P" horiz-adv-x="768" 
d="M741 674c0 -56 -9.5 -103.501 -28.5 -142.501s-45.167 -70.667 -78.5 -95s-72.5 -42 -117.5 -53s-93.5 -16.5 -145.5 -16.5h-82v-367h-193v965h244c52.667 0 103.167 -4.5 151.5 -13.5s91 -24.5 128 -46.5s66.5 -51.667 88.5 -89s33 -84.666 33 -141.999zM541 661.999
c0 28 -4.83398 51.667 -14.501 71s-23 34.833 -40 46.5s-36.667 20.167 -59 25.5s-46.166 8 -71.499 8h-67v-295h67c24 0 47.167 2.33301 69.5 7s42 12.5 59 23.5s30.667 25.667 41 44s15.5 41.5 15.5 69.5z" />
    <glyph glyph-name="Q" unicode="Q" horiz-adv-x="1075" 
d="M1010 485c0 -51.333 -5.16992 -100.167 -15.5029 -146.5s-25.666 -88.833 -45.999 -127.5s-45.666 -73 -75.999 -103s-65.166 -54.333 -104.499 -73l217 -217h-233l-168 168c-7.33301 -1.33301 -14.666 -2 -21.999 -2h-23c-78 0 -146.5 12.167 -205.5 36.5
s-108.333 58.5 -148 102.5s-69.5 96.833 -89.5 158.5s-30 129.5 -30 203.5s10.167 141.333 30.5 202s50.5 112.834 90.5 156.501s89.333 77.5 148 101.5s126.667 36 204 36c75.333 0 142.166 -12.167 200.499 -36.5s107.5 -58.5 147.5 -102.5s70.5 -96.333 91.5 -157
s31.5 -127.334 31.5 -200.001zM808.997 484.999c0 42.667 -5.16992 84.5 -15.5029 125.5s-26.5 77.667 -48.5 110s-50 58.5 -84 78.5s-74.667 30 -122 30c-48 0 -89.333 -10 -124 -30s-63 -46.167 -85 -78.5s-38.167 -69 -48.5 -110s-15.5 -82.833 -15.5 -125.5
c0 -43.333 4.83301 -86 14.5 -128s25.334 -79.5 47.001 -112.5s49.834 -59.5 84.501 -79.5s77 -30 127 -30c48.667 0 90.167 10 124.5 30s62.333 46.5 84 79.5s37.334 70.5 47.001 112.5s14.5 84.667 14.5 128z" />
    <glyph glyph-name="R" unicode="R" horiz-adv-x="844" 
d="M602 0l-116.997 300.998c-7.33301 18 -14.5 33.333 -21.5 46s-15.5 23 -25.5 31s-22 13.833 -36 17.5s-31.333 5.5 -52 5.5h-61v-401h-193v965h207c34.667 0 70.167 -0.166992 106.5 -0.5s71.333 -2.66602 105 -6.99902s65.5 -11.666 95.5 -21.999s56 -25 78 -44
s39.5 -43.667 52.5 -74s19.5 -67.833 19.5 -112.5c0 -28.667 -4.66699 -55.834 -14 -81.501s-22.833 -48.5 -40.5 -68.5s-38.834 -36.667 -63.501 -50s-52.334 -22 -83.001 -26v-2c13.333 -1.33301 25.333 -5.16602 36 -11.499s20.167 -14.333 28.5 -24
s15.666 -20.167 21.999 -31.5s11.833 -22.333 16.5 -33l155 -377h-215zM557.003 685.998c0 29.333 -6.16699 52.502 -18.5 69.502s-28.166 29.667 -47.499 38s-41.333 13.666 -66 15.999s-49 3.5 -73 3.5h-63v-260h63c24 0 48.333 1.33301 73 4s46.667 8.66699 66 18
s35.166 22.666 47.499 39.999s18.5 41 18.5 71z" />
    <glyph glyph-name="S" unicode="S" horiz-adv-x="768" 
d="M705 274c0 -52.667 -9.66406 -97.499 -28.9971 -134.499s-45.5 -67 -78.5 -90s-71.5 -39.667 -115.5 -50s-90.667 -15.5 -140 -15.5c-26 0 -49 0.833008 -69 2.5s-39.167 4 -57.5 7s-37 6.83301 -56 11.5l-63.5 15l17 175c34 -17.333 69.5 -31.666 106.5 -42.999
s74.5 -17 112.5 -17c18.667 0 38 2.33301 58 7s38.5 12.167 55.5 22.5s31 23.333 42 39s16.5 34.5 16.5 56.5c0 22.667 -6 42 -18 58s-28 29.833 -48 41.5s-42.667 22.5 -68 32.5l-78 31.5c-26.667 11 -52.667 23.333 -78 37s-48 30.667 -68 51s-36 44.666 -48 72.999
s-18 62.166 -18 101.499c0 54 9.66699 99.833 29 137.5s44.833 68.167 76.5 91.5s67.667 40.166 108 50.499s81.833 15.5 124.5 15.5c41.333 0 81.166 -2.66699 119.499 -8s75.5 -14.333 111.5 -27l-18 -158c-62.667 27.333 -128.334 41 -197.001 41c-16 0 -33 -2 -51 -6
s-34.333 -11 -49 -21s-26.834 -23.667 -36.501 -41s-14.5 -39 -14.5 -65c0 -21.333 6 -39.166 18 -53.499s28 -27 48 -38s42.5 -21.167 67.5 -30.5s50.833 -19.5 77.5 -30.5s52.5 -23.667 77.5 -38s47.5 -31.833 67.5 -52.5s36 -45.5 48 -74.5s18 -63.833 18 -104.5z" />
    <glyph glyph-name="T" unicode="T" horiz-adv-x="768" 
d="M481 813v-813h-194v813h-277v152h748v-152h-277z" />
    <glyph glyph-name="U" unicode="U" horiz-adv-x="997" 
d="M893 348c0 -64.667 -9 -120 -27 -166s-43.833 -83.667 -77.5 -113s-74.834 -50.833 -123.501 -64.5s-103.667 -20.5 -165 -20.5c-62 0 -117.5 6.83301 -166.5 20.5s-90.5 35.167 -124.5 64.5s-60 67 -78 113s-27 101.333 -27 166v617h195v-557
c0 -41.333 3.5 -78.666 10.5 -111.999s18.333 -62 34 -86s36.334 -42.5 62.001 -55.5s57.167 -19.5 94.5 -19.5c36.667 0 67.667 6.5 93 19.5s46 31.5 62 55.5s27.5 52.667 34.5 86s10.5 70.666 10.5 111.999v557h193v-617v0z" />
    <glyph glyph-name="V" unicode="V" horiz-adv-x="922" 
d="M584 0h-238l-332 965h207l248 -758h2l246 758h190z" />
    <glyph glyph-name="W" unicode="W" horiz-adv-x="1382" 
d="M1116 0h-248l-174 772h-4l-170 -772h-250l-256 965h203l180 -772h2l164 772h264l170 -772h2l181 772h188z" />
    <glyph glyph-name="X" unicode="X" horiz-adv-x="922" 
d="M680 0l-223 377l-226 -377h-217l316 502l-287 463h223l203 -344l205 344h209l-291 -463l315 -502h-227z" />
    <glyph glyph-name="Y" unicode="Y" horiz-adv-x="922" 
d="M561 381v-381h-192v381l-355 584h228l227 -406l233 406h205z" />
    <glyph glyph-name="Z" unicode="Z" horiz-adv-x="768" 
d="M49 0v158l455 655h-436v152h641v-158l-457 -655h467v-152h-670z" />
    <glyph glyph-name="bracketleft" unicode="[" horiz-adv-x="461" 
d="M100 -193v1237h310v-135h-134v-966h134v-136h-310z" />
    <glyph glyph-name="backslash" unicode="\" horiz-adv-x="539" 
d="M365 -16l-338 997h145l336 -997h-143z" />
    <glyph glyph-name="bracketright" unicode="]" horiz-adv-x="461" 
d="M51 -193v136h133v966h-133v135h309v-1237h-309z" />
    <glyph glyph-name="asciicircum" unicode="^" horiz-adv-x="829" 
d="M594 432l-180 387l-178 -387h-144l258 533h129l258 -533h-143z" />
    <glyph glyph-name="underscore" unicode="_" horiz-adv-x="690" 
d="M0 -172v68h690v-68h-690z" />
    <glyph glyph-name="grave" unicode="`" horiz-adv-x="385" 
d="M229 809l-188 201h188l115 -201h-115z" />
    <glyph glyph-name="a" unicode="a" horiz-adv-x="768" 
d="M530 0c-4 18.667 -6.33398 38.166 -7.00098 58.499s-1.66699 36.166 -3 47.499h-2c-10.667 -20 -24.167 -37.5 -40.5 -52.5s-34.166 -27.667 -53.499 -38s-39.833 -18.166 -61.5 -23.499s-42.834 -8 -63.501 -8c-32 0 -63 4.66699 -93 14s-56.667 22.833 -80 40.5
s-42 39.667 -56 66s-21 56.5 -21 90.5c0 53.333 11.5 96 34.5 128s52.5 56.667 88.5 74c35.333 16.667 74.333 28 117 34s83 9 121 9h102c0 57.333 -13 97.333 -39 120s-66.333 34 -121 34c-39.333 0 -77.833 -7.16699 -115.5 -21.5s-72.167 -33.166 -103.5 -56.499l-6 158
c36 17.333 76.333 30.833 121 40.5s87 14.5 127 14.5c54 0 100.5 -5.83301 139.5 -17.5s70.833 -29.667 95.5 -54s42.834 -55.5 54.501 -93.5s17.5 -83.333 17.5 -136v-90v-97c0 -28.667 0.666992 -55.667 2 -81c1.33301 -28 2.5 -54.667 3.5 -80s2.5 -52 4.5 -80h-162z
M431.999 329.999c-20.667 0 -43 -1.33203 -67 -3.99902s-46.167 -8.33398 -66.5 -17.001s-37.333 -21.167 -51 -37.5s-20.5 -37.833 -20.5 -64.5c0 -15.333 3 -28.666 9 -39.999s14.333 -20.5 25 -27.5s23.167 -12.167 37.5 -15.5s29.5 -5 45.5 -5
c28.667 0 54 5.66699 76 17s40.333 26.666 55 45.999c15.333 20.667 25.333 43.5 30 68.5s7 51.5 7 79.5h-80z" />
    <glyph glyph-name="b" unicode="b" horiz-adv-x="844" 
d="M795 358c0 -48.667 -5.33301 -95.498 -16 -140.498s-27.834 -84.833 -51.501 -119.5s-54.5 -62.334 -92.5 -83.001s-84.333 -31 -139 -31c-19.333 0 -39 1.83301 -59 5.5s-39.5 9.5 -58.5 17.5s-37 18.667 -54 32s-32.167 29.666 -45.5 48.999h-5v-88h-178v1036h185v-415
h2c25.333 34 55 60.5 89 79.5s75.333 28.5 124 28.5c54.667 0 101 -10.167 139 -30.5s68.833 -47.5 92.5 -81.5s40.834 -73.333 51.501 -118s16 -91.667 16 -141zM602 358.002c0 24 -2.49902 49.333 -7.49902 76s-13.333 51.167 -25 73.5s-27.334 41 -47.001 56
s-44.167 22.5 -73.5 22.5c-30 0 -55.5 -7.16699 -76.5 -21.5s-38.167 -32.666 -51.5 -54.999s-23 -47 -29 -74s-9 -52.833 -9 -77.5c0 -25.333 2.66699 -51.5 8 -78.5s14.166 -51.833 26.499 -74.5s28.833 -41.334 49.5 -56.001s46.334 -22 77.001 -22s56.167 7.5 76.5 22.5
s36.5 33.833 48.5 56.5s20.5 47.5 25.5 74.5s7.5 52.833 7.5 77.5z" />
    <glyph glyph-name="c" unicode="c" horiz-adv-x="614" 
d="M586 6c-27.333 -8 -55.5 -13.6631 -84.5 -16.9961s-62.5 -5 -100.5 -5c-58 0 -109 9.33301 -153 28s-80.833 44.667 -110.5 78s-51.834 72.833 -66.501 118.5s-22 95.5 -22 149.5c0 52 7.5 100.5 22.5 145.5s37.167 84.167 66.5 117.5s65.333 59.666 108 78.999
s91.667 29 147 29c38 0 71.167 -2 99.5 -6s55.166 -10 80.499 -18l-16 -146c-16.667 7.33301 -34.667 13.666 -54 18.999s-43 8 -71 8c-28.667 0 -54.667 -5.5 -78 -16.5s-43.166 -26.5 -59.499 -46.5s-28.833 -44 -37.5 -72s-13 -59 -13 -93
c0 -32.667 3.83301 -63.167 11.5 -91.5s19.5 -52.833 35.5 -73.5s36 -36.834 60 -48.501s52.333 -17.5 85 -17.5c12.667 0 25.834 1.16699 39.501 3.5s26.667 5.16602 39 8.49902s24 6.83301 35 10.5s20.5 7.16699 28.5 10.5l8 -154v0z" />
    <glyph glyph-name="d" unicode="d" horiz-adv-x="844" 
d="M569 0v79.998h-2c-28 -35.333 -60.5 -60.166 -97.5 -74.499s-77.5 -21.5 -121.5 -21.5c-54.667 0 -101 10.333 -139 31s-68.833 48.334 -92.5 83.001s-40.834 74.5 -51.501 119.5s-16 91.833 -16 140.5c0 49.333 5.33301 96.333 16 141s27.834 84 51.501 118
s54.5 61.167 92.5 81.5s84.333 30.5 139 30.5c46 0 86 -8.16699 120 -24.5s65 -41.5 93 -75.5h2v407h187v-1036h-181zM563 357.998c0 24.667 -3.00098 50.5 -9.00098 77.5s-15.667 51.667 -29 74s-30.5 40.666 -51.5 54.999s-46.5 21.5 -76.5 21.5s-55 -7.5 -75 -22.5
s-35.667 -33.667 -47 -56s-19.333 -46.833 -24 -73.5s-7 -52 -7 -76c0 -24.667 2.5 -50.5 7.5 -77.5s13.333 -51.833 25 -74.5s27.5 -41.5 47.5 -56.5s45 -22.5 75 -22.5c30.667 0 56.5 7.33301 77.5 22s37.833 33.334 50.5 56.001s21.834 47.5 27.501 74.5
s8.5 53.167 8.5 78.5z" />
    <glyph glyph-name="e" unicode="e" horiz-adv-x="768" 
d="M227 299c4.66699 -58 25.168 -102.502 61.501 -133.502s83.5 -46.5 141.5 -46.5c45.333 0 87.5 7 126.5 21s75.5 30.667 109.5 50v-149c-34 -19.333 -70.833 -33.666 -110.5 -42.999s-84.167 -14 -133.5 -14c-59.333 0 -112 8.16699 -158 24.5s-85 40.333 -117 72
s-56.333 70.334 -73 116.001s-25 97.5 -25 155.5c0 52 7 100.833 21 146.5s34.833 85.5 62.5 119.5s62.167 61 103.5 81s89.666 30 144.999 30c66 0 120.667 -10.833 164 -32.5s78 -51.5 104 -89.5s44.167 -83.333 54.5 -136s15.5 -110 15.5 -172h-492zM543.001 425.998
c-1.33301 22.667 -5.16602 44.168 -11.499 64.501s-15.5 38.166 -27.5 53.499s-27.333 27.5 -46 36.5s-41 13.5 -67 13.5s-48.667 -4.33301 -68 -13s-35.833 -20.5 -49.5 -35.5s-24.334 -32.833 -32.001 -53.5s-12.5 -42.667 -14.5 -66h316z" />
    <glyph glyph-name="f" unicode="f" horiz-adv-x="539" 
d="M510 885c-8 5.33301 -18.5 10.668 -31.5 16.001s-29.167 8 -48.5 8c-15.333 0 -28.166 -3 -38.499 -9s-18.833 -14 -25.5 -24s-11.334 -21.5 -14.001 -34.5s-4 -26.5 -4 -40.5v-88h162v-138h-162v-575h-184v575h-137v138h137v98c0 36 5 68.833 15 98.5
s24.5 55.167 43.5 76.5s42.5 37.833 70.5 49.5s60 17.5 96 17.5c23.333 0 47.333 -1.33301 72 -4s45.667 -6.33398 63 -11.001z" />
    <glyph glyph-name="g" unicode="g" horiz-adv-x="844" 
d="M750 70c0 -48.667 -5.66895 -95.667 -17.002 -141s-31.166 -85.5 -59.499 -120.5s-66.833 -63 -115.5 -84s-110.334 -31.5 -185.001 -31.5c-37.333 0 -76.666 3.5 -117.999 10.5s-84 19.833 -128 38.5l16 158c14 -8 29.833 -15.833 47.5 -23.5s35.834 -14.5 54.501 -20.5
s37.167 -10.833 55.5 -14.5s34.833 -5.5 49.5 -5.5c51.333 0 91.333 8.66699 120 26s49.834 39.5 63.501 66.5s22 56.833 25 89.5s4.5 64.334 4.5 95.001h-2c-8.66699 -15.333 -20.167 -29.666 -34.5 -42.999s-31 -25.333 -50 -36s-40 -19 -63 -25s-47.5 -9 -73.5 -9
c-52.667 0 -97.5 9.66699 -134.5 29s-67 45.5 -90 78.5s-39.833 71.167 -50.5 114.5s-16 88.666 -16 135.999c0 42.667 5.66699 86.167 17 130.5s29.166 84.166 53.499 119.499s55.5 64.333 93.5 87s83.667 34 137 34c47.333 0 89.333 -8.83301 126 -26.5
s67.667 -47.167 93 -88.5h2v99h179v-643zM562.998 365c0 30 -3.00195 58.333 -9.00195 85s-15.333 50.167 -28 70.5s-28.5 36.333 -47.5 48s-41.833 17.5 -68.5 17.5c-32 0 -58.5 -6.66699 -79.5 -20s-38 -30.833 -51 -52.5s-22.167 -46 -27.5 -73s-8 -54.5 -8 -82.5
c0 -24 3.16699 -48.667 9.5 -74s16 -48.5 29 -69.5s29.333 -38.167 49 -51.5s42.834 -20 69.501 -20c28.667 0 53.334 5.83301 74.001 17.5s37.5 27.667 50.5 48s22.5 44 28.5 71s9 55.5 9 85.5z" />
    <glyph glyph-name="h" unicode="h" horiz-adv-x="844" 
d="M563 0l-0.000976562 381.002c0 21.333 -0.666992 44 -2 68s-5.66602 46.167 -12.999 66.5s-19 37.166 -35 50.499s-39 20 -69 20c-34 0 -61.5 -8.16699 -82.5 -24.5s-37.5 -36.5 -49.5 -60.5s-20.167 -49.833 -24.5 -77.5s-6.5 -52.834 -6.5 -75.501v-348h-185v1036h185
v-422h2c23.333 35.333 54.333 63.333 93 84s82.667 31 132 31c42 0 78.167 -7 108.5 -21s55.5 -33.5 75.5 -58.5s34.667 -54.667 44 -89s14 -71.5 14 -111.5v-449h-187z" />
    <glyph glyph-name="i" unicode="i" horiz-adv-x="385" 
d="M100 842v176h185v-176h-185zM100 0v713h185v-713h-185z" />
    <glyph glyph-name="j" unicode="j" horiz-adv-x="385" 
d="M100 842v176h185v-176h-185zM285 -53c0 -25.333 -2.5 -52.8311 -7.5 -82.498s-15.167 -57.167 -30.5 -82.5s-37 -46.5 -65 -63.5s-65.333 -25.5 -112 -25.5c-14.667 0 -30.5 1 -47.5 3s-31.167 5 -42.5 9l6 131c24.667 1.33301 44.5 4.16602 59.5 8.49902
s26.5 11.333 34.5 21s13.333 23.167 16 40.5s4 39.666 4 66.999v740h185v-766z" />
    <glyph glyph-name="k" unicode="k" horiz-adv-x="768" 
d="M524 0l-237 346h-2v-346h-185v1036h185v-608h2l221 285h219l-266 -320l299 -393h-236z" />
    <glyph glyph-name="l" unicode="l" horiz-adv-x="385" 
d="M100 0v1036h185v-1036h-185z" />
    <glyph glyph-name="m" unicode="m" horiz-adv-x="1229" 
d="M952 0l0.00195312 423.999c0 16.667 -0.5 34.5 -1.5 53.5s-4.83301 36.5 -11.5 52.5s-17.167 29.333 -31.5 40s-34.833 16 -61.5 16c-30.667 0 -55 -8.16699 -73 -24.5s-31.833 -36.666 -41.5 -60.999s-15.834 -50.5 -18.501 -78.5s-4 -53.333 -4 -76v-346h-187v424
c0 16.667 -0.5 34.5 -1.5 53.5s-4.83301 36.5 -11.5 52.5s-17.167 29.333 -31.5 40s-34.833 16 -61.5 16c-30.667 0 -55 -8.16699 -73 -24.5s-31.833 -36.666 -41.5 -60.999s-15.834 -50.5 -18.501 -78.5s-4 -53.333 -4 -76v-346h-187v713h174v-101h2
c14.667 22 30.667 40.5 48 55.5s35.166 27 53.499 36s36.833 15.5 55.5 19.5s36.667 6 54 6c50.667 0 93.334 -10.167 128.001 -30.5s62.334 -52.5 83.001 -96.5c10.667 21.333 24.167 40 40.5 56s34.333 29.167 54 39.5s40.334 18.166 62.001 23.499s43.167 8 64.5 8
c44 0 80.667 -7.16699 110 -21.5s52.666 -34 69.999 -59s29.666 -54.5 36.999 -88.5s11 -71 11 -111v-449h-187z" />
    <glyph glyph-name="n" unicode="n" horiz-adv-x="844" 
d="M563 0l-0.000976562 381.002c0 21.333 -0.666992 44 -2 68s-5.66602 46.167 -12.999 66.5s-19 37.166 -35 50.499s-39 20 -69 20c-34 0 -61.5 -8.16699 -82.5 -24.5s-37.5 -36.5 -49.5 -60.5s-20.167 -49.833 -24.5 -77.5s-6.5 -52.834 -6.5 -75.501v-348h-185v713h174
v-99h4c29.333 41.333 63.333 70.833 102 88.5s82.667 26.5 132 26.5c42 0 78.167 -7 108.5 -21s55.5 -33.5 75.5 -58.5s34.667 -54.667 44 -89s14 -71.5 14 -111.5v-449h-187z" />
    <glyph glyph-name="o" unicode="o" horiz-adv-x="844" 
d="M795 350c0 -50.667 -8.33301 -98.334 -25 -143.001s-41 -83.5 -73 -116.5s-71.167 -59 -117.5 -78s-98.833 -28.5 -157.5 -28.5c-59.333 0 -112 9.5 -158 28.5s-85 45 -117 78s-56.333 71.833 -73 116.5s-25 92.334 -25 143.001c0 58.667 9.5 111.5 28.5 158.5
s45.333 86.833 79 119.5s73.167 57.667 118.5 75s94.333 26 147 26s101.667 -8.66699 147 -26s84.833 -42.333 118.5 -75s60 -72.5 79 -119.5s28.5 -99.833 28.5 -158.5zM602 373c0 27.333 -3.66699 53.832 -11 79.499s-18.5 48.334 -33.5 68.001s-33.833 35.5 -56.5 47.5
s-49 18 -79 18s-56.167 -6.16699 -78.5 -18.5s-40.833 -28.5 -55.5 -48.5s-25.667 -42.667 -33 -68s-11 -51.333 -11 -78c0 -29.333 2.66699 -58.666 8 -87.999s14.666 -55.666 27.999 -78.999s31.5 -42.333 54.5 -57s52.167 -22 87.5 -22s64.5 7.16699 87.5 21.5
s41.333 33.166 55 56.499s23.334 49.666 29.001 78.999s8.5 59 8.5 89z" />
    <glyph glyph-name="p" unicode="p" horiz-adv-x="844" 
d="M795 358c0 -48.667 -5.33496 -95.499 -16.002 -140.499s-28 -84.833 -52 -119.5s-55.167 -62.334 -93.5 -83.001s-85.5 -31 -141.5 -31c-19.333 0 -38.166 1.33301 -56.499 4s-36 7.66699 -53 15s-33.833 17.333 -50.5 30s-33 29 -49 49h-2v-373h-185v1004h176v-103h2
c21.333 35.333 50 64 86 86s81.333 33 136 33s101 -10.167 139 -30.5s68.833 -47.5 92.5 -81.5s40.834 -73.333 51.501 -118s16 -91.667 16 -141zM601.998 358.001c0 24 -2.49902 49.333 -7.49902 76s-13.333 51.167 -25 73.5s-27.334 41 -47.001 56
s-44.167 22.5 -73.5 22.5c-30 0 -55.5 -7.16699 -76.5 -21.5s-38.167 -32.666 -51.5 -54.999s-23 -47 -29 -74s-9 -52.833 -9 -77.5c0 -25.333 2.66699 -51.5 8 -78.5s14.166 -51.833 26.499 -74.5s28.833 -41.334 49.5 -56.001s46.334 -22 77.001 -22s56.167 7.5 76.5 22.5
s36.5 33.833 48.5 56.5s20.5 47.5 25.5 74.5s7.5 52.833 7.5 77.5z" />
    <glyph glyph-name="q" unicode="q" horiz-adv-x="844" 
d="M563 -291l-0.00195312 372.999h-2c-16 -20 -32.167 -36.333 -48.5 -49s-33 -22.667 -50 -30s-34.667 -12.333 -53 -15s-37.5 -4 -57.5 -4c-56 0 -103.167 10.333 -141.5 31s-69.5 48.334 -93.5 83.001s-41.333 74.5 -52 119.5s-16 91.833 -16 140.5
c0 49.333 5.33301 96.333 16 141s28 84 52 118s55.167 61.167 93.5 81.5s85.5 30.5 141.5 30.5c52.667 0 96.334 -10.5 131.001 -31.5s63.334 -50.167 86.001 -87.5h2v103h179v-1004h-187zM562.998 357.999c0 24.667 -3.00098 50.5 -9.00098 77.5s-15.667 51.667 -29 74
s-30.5 40.666 -51.5 54.999s-46.5 21.5 -76.5 21.5s-55 -7.5 -75 -22.5s-35.667 -33.667 -47 -56s-19.333 -46.833 -24 -73.5s-7 -52 -7 -76c0 -24.667 2.5 -50.5 7.5 -77.5s13.333 -51.833 25 -74.5s27.5 -41.5 47.5 -56.5s45 -22.5 75 -22.5
c30.667 0 56.5 7.33301 77.5 22s37.833 33.334 50.5 56.001s21.834 47.5 27.501 74.5s8.5 53.167 8.5 78.5z" />
    <glyph glyph-name="r" unicode="r" horiz-adv-x="539" 
d="M518 537c-8 5.33301 -19.5 9.00098 -34.5 11.001s-30.833 3 -47.5 3c-25.333 0 -46.5 -4.83301 -63.5 -14.5s-31.167 -22.334 -42.5 -38.001s-20 -33.5 -26 -53.5s-10.5 -40.667 -13.5 -62s-4.66699 -42.5 -5 -63.5s-0.5 -40.167 -0.5 -57.5v-262h-185v713h164v-162h2
c2 16 8 34.333 18 55s23.5 40.167 40.5 58.5s37 33.666 60 45.999s48.5 18.5 76.5 18.5c9.33301 0 18.833 -0.166992 28.5 -0.5s19.167 -2.16602 28.5 -5.49902v-186v0z" />
    <glyph glyph-name="s" unicode="s" horiz-adv-x="614" 
d="M565 215c0 -41.333 -8.50195 -76.6689 -25.502 -106.002s-39.333 -53.333 -67 -72s-59.5 -32.167 -95.5 -40.5s-73 -12.5 -111 -12.5c-34.667 0 -69.667 2.66699 -105 8s-70 12.666 -104 21.999l11 152c28.667 -14.667 58.167 -26.167 88.5 -34.5s61.5 -12.5 93.5 -12.5
c12 0 25 1.33301 39 4s27.333 7.33398 40 14.001s23.167 15.667 31.5 27s12.5 25.666 12.5 42.999c0 23.333 -8 41 -24 53s-36 21.833 -60 29.5s-50 15.334 -78 23.001s-54 18.834 -78 33.501s-44 34.5 -60 59.5s-24 59.167 -24 102.5c0 38.667 7.83301 71.834 23.5 99.501
s36.5 50.5 62.5 68.5s55.833 31.333 89.5 40s68.834 13 105.501 13c43.333 0 80.333 -2.83301 111 -8.5s60.334 -11.834 89.001 -18.501l-12 -139l-40 13c-12.667 4 -25.5 7.33301 -38.5 10s-26.667 4.66699 -41 6s-29.833 2 -46.5 2c-12 0 -24.5 -1.33301 -37.5 -4
s-24.667 -7 -35 -13s-18.833 -14.167 -25.5 -24.5s-10 -23.166 -10 -38.499c0 -14 4.66699 -25.5 14 -34.5s21.5 -16.833 36.5 -23.5s32 -12.667 51 -18s38.667 -11.666 59 -18.999s40 -16 59 -26s36 -22.833 51 -38.5s27.167 -34.834 36.5 -57.501s14 -50 14 -82z" />
    <glyph glyph-name="t" unicode="t" horiz-adv-x="539" 
d="M518 0c-19.333 -5.33301 -39.9961 -9.33301 -61.9961 -12s-47 -4 -75 -4c-72.667 0 -128.334 20.833 -167.001 62.5s-58 97.834 -58 168.501v360h-138v138h138v141l186 59v-200h164v-138h-164v-331c0 -15.333 1.16699 -30 3.5 -44s6.66602 -26.333 12.999 -37
s15.166 -19.334 26.499 -26.001s25.666 -10 42.999 -10c16.667 0 32.5 1.5 47.5 4.5s27.167 8.16699 36.5 15.5l6 -147v0z" />
    <glyph glyph-name="u" unicode="u" horiz-adv-x="844" 
d="M573 0l0.000976562 96h-2c-28.667 -34.667 -62.667 -62 -102 -82s-83 -30 -131 -30c-42.667 0 -79.167 7 -109.5 21s-55.333 33.333 -75 58s-34.167 54 -43.5 88s-14 71 -14 111v451h185v-381c0 -22 0.666992 -45 2 -69s5.83301 -46.167 13.5 -66.5s19.667 -37 36 -50
s39.166 -19.5 68.499 -19.5c33.333 0 60.5 8 81.5 24s37.5 36 49.5 60s20.167 49.833 24.5 77.5s6.5 53.167 6.5 76.5v348h187v-713h-177z" />
    <glyph glyph-name="v" unicode="v" horiz-adv-x="768" 
d="M489 0h-208l-265 713h199l178 -520h2l172 520h185z" />
    <glyph glyph-name="w" unicode="w" horiz-adv-x="1229" 
d="M995 0h-219l-153 543h-5l-151 -543h-211l-242 713h197l158 -529h4l143 529h215l156 -529h2l147 529h178z" />
    <glyph glyph-name="x" unicode="x" horiz-adv-x="768" 
d="M535 0l-158 266l-162 -266h-203l246 373l-221 340h219l139 -234l137 234h197l-213 -340l240 -373h-221z" />
    <glyph glyph-name="y" unicode="y" horiz-adv-x="768" 
d="M487 6l-44 -115.5c-14.667 -37.667 -32.5 -71.167 -53.5 -100.5s-47.333 -52.833 -79 -70.5s-71.834 -26.5 -120.501 -26.5c-21.333 0 -43.166 1.83301 -65.499 5.5s-44.166 8.5 -65.499 14.5l13 135c12 -4 25.167 -7 39.5 -9s33.166 -3 56.499 -3
c37.333 0 66.5 11.667 87.5 35s31.5 54 31.5 92l-273 750h205l172 -520h2l172 520h189z" />
    <glyph glyph-name="z" unicode="z" horiz-adv-x="690" 
d="M49 0v152l361 415h-344v146h563v-154l-355 -416h367v-143h-592z" />
    <glyph glyph-name="braceleft" unicode="{" horiz-adv-x="461" 
d="M342 -193c-26 0 -51.333 3.83008 -76 11.4971s-46.5 19.167 -65.5 34.5s-34.333 34.666 -46 57.999s-17.5 51 -17.5 83v233c0 26.667 -3.5 49 -10.5 67s-15.833 32.333 -26.5 43s-22.667 18.334 -36 23.001s-26.333 7 -39 7v118c12.667 0 25.667 2.16699 39 6.5
s25.333 11.5 36 21.5s19.5 23.167 26.5 39.5s10.5 36.833 10.5 61.5v244c0 32 6 59.833 18 83.5s27.833 43 47.5 58s41.667 26.167 66 33.5s48.833 11 73.5 11h104v-110h-61c-15.333 0 -27.5 -2.33301 -36.5 -7s-16 -11.334 -21 -20.001s-8.33301 -19.167 -10 -31.5
s-2.5 -26.166 -2.5 -41.499v-240c0 -32 -5.33301 -58.5 -16 -79.5s-23.834 -37.833 -39.501 -50.5s-32.5 -21.667 -50.5 -27s-34.333 -8.33301 -49 -9v-4c14.667 -1.33301 31 -4.16602 49 -8.49902s34.833 -12.666 50.5 -24.999s28.834 -29.833 39.501 -52.5
s16 -52.667 16 -90v-230c0 -16 0.833008 -30.167 2.5 -42.5s5 -22.666 10 -30.999s12 -14.833 21 -19.5s21.167 -7 36.5 -7h61v-111h-104z" />
    <glyph glyph-name="bar" unicode="|" horiz-adv-x="307" 
d="M82 -346v1382h143v-1382h-143z" />
    <glyph glyph-name="braceright" unicode="}" horiz-adv-x="461" 
d="M436 367c-12.667 0 -25.834 -2.33008 -39.501 -6.99707s-26 -12.334 -37 -23.001s-20 -25 -27 -43s-10.5 -40.333 -10.5 -67v-233c0 -32 -5.66699 -59.833 -17 -83.5s-26.5 -43.167 -45.5 -58.5s-40.833 -26.666 -65.5 -33.999s-50.334 -11 -77.001 -11h-103v111h62
c15.333 0 27.5 2.33301 36.5 7s16 11.167 21 19.5s8.16699 18.666 9.5 30.999s2 26.5 2 42.5v230c0 37.333 5.33301 67.333 16 90s23.667 40.167 39 52.5s32 20.666 50 24.999s34.333 7.16602 49 8.49902v4c-14.667 0.666992 -31 3.66699 -49 9s-34.667 14.333 -50 27
s-28.333 29.5 -39 50.5s-16 47.5 -16 79.5v240c0 15.333 -0.666992 29.166 -2 41.499s-4.5 22.833 -9.5 31.5s-12 15.334 -21 20.001s-21.167 7 -36.5 7h-62v110h103c26.667 0 52.334 -3.66699 77.001 -11s46.5 -18.5 65.5 -33.5s34.167 -34.333 45.5 -58s17 -51.5 17 -83.5
v-244c0 -24.667 3.5 -45.167 10.5 -61.5s16 -29.5 27 -39.5s23.333 -17.167 37 -21.5s26.834 -6.5 39.501 -6.5v-118v0z" />
    <glyph glyph-name="asciitilde" unicode="~" horiz-adv-x="829" 
d="M733 350c-8 -14 -17.4961 -28.333 -28.4961 -43s-23 -27.667 -36 -39s-27.333 -20.666 -43 -27.999s-32.5 -11 -50.5 -11c-32.667 0 -61.5 5.16699 -86.5 15.5s-49.833 21.833 -74.5 34.5c-22.667 12 -45.5 22.833 -68.5 32.5s-50.167 14.5 -81.5 14.5
c-16 0 -30 -3 -42 -9s-22.833 -13.667 -32.5 -23s-18 -19.833 -25 -31.5s-13.5 -23.5 -19.5 -35.5l-49 121c7.33301 14.667 16 29.167 26 43.5s21.833 27.166 35.5 38.499s29.167 20.666 46.5 27.999s36.666 11 57.999 11c36 0 66.667 -4.66699 92 -14
s48.666 -19.666 69.999 -30.999c24.667 -12.667 48.667 -24.334 72 -35.001s47.666 -16 72.999 -16c12 0 23.333 2.83301 34 8.5s20.667 13.334 30 23.001s18.166 20.5 26.499 32.5l24.5 36l49 -123v0z" />
    <glyph glyph-name="currency" unicode="&#xa4;" horiz-adv-x="840" 
d="M422 729c-64 0 -117.334 -22.332 -160.001 -66.999c-43.333 -48.667 -65 -102 -65 -160c0 -62.667 21 -117.334 63 -164.001c43.333 -45.333 97.333 -68 162 -68c61.333 0 114 22.667 158 68c42 42 63 96.667 63 164c0 30.667 -5.5 59.667 -16.5 87
s-26.167 51.333 -45.5 72s-42.666 37.167 -69.999 49.5s-57 18.5 -89 18.5zM7.99902 164.001l147.998 145.002c-41.333 55.333 -62 119.666 -62 192.999c0 76 20.667 138.667 62 188l-148 150l76 71l145 -145c52.667 39.333 117 59 193 59
c36.667 0 71.834 -5.33301 105.501 -16s61.167 -25 82.5 -43l150 145l71 -71l-145 -150c39.333 -52.667 59 -115.334 59 -188.001c0 -76 -19.667 -140.333 -59 -193l145 -145l-71 -76l-150 148c-10 -8.66699 -22 -16.5 -36 -23.5s-29.667 -13.833 -47 -20.5
c-35.333 -12 -70.333 -18 -105 -18c-73.333 0 -137.666 20.667 -192.999 62l-145 -148z" />
    <glyph glyph-name="FL00A9h" unicode="&#xa9;" horiz-adv-x="1106" 
d="M1053 483c0 -69.333 -13.167 -134.166 -39.5 -194.499s-62.166 -113.166 -107.499 -158.499s-98.333 -81 -159 -107s-125.334 -39 -194.001 -39s-133.334 13 -194.001 39s-113.667 61.667 -159 107s-81.166 98.166 -107.499 158.499s-39.5 125.166 -39.5 194.499
c0 68.667 13.167 133.334 39.5 194.001s62.166 113.5 107.499 158.5s98.333 80.5 159 106.5s125.334 39 194.001 39s133.334 -13 194.001 -39s113.667 -61.5 159 -106.5s81.166 -97.833 107.499 -158.5s39.5 -125.334 39.5 -194.001zM907 483
c0 57.333 -9.16699 109.833 -27.5 157.5s-43.333 88.5 -75 122.5s-69 60.333 -112 79s-89.5 28 -139.5 28s-96.667 -9.33301 -140 -28s-80.833 -45 -112.5 -79s-56.5 -74.833 -74.5 -122.5s-27 -100.167 -27 -157.5c0 -58 9 -110.833 27 -158.5s42.833 -88.5 74.5 -122.5
s69.167 -60.5 112.5 -79.5s90 -28.5 140 -28.5s96.5 9.5 139.5 28.5s80.333 45.5 112 79.5s56.667 74.833 75 122.5s27.5 100.5 27.5 158.5zM815 401c-5.33301 -34 -15.499 -63.8301 -30.499 -89.4971s-33.333 -47.334 -55 -65.001s-46 -31 -73 -40s-55.5 -13.5 -85.5 -13.5
c-42.667 0 -81.167 7.5 -115.5 22.5s-63.666 35.833 -87.999 62.5s-43.166 57.834 -56.499 93.501s-20 74.167 -20 115.5c0 42 6.33301 80.833 19 116.5s31 66.667 55 93s53.167 46.833 87.5 61.5s73.166 22 116.499 22c30.667 0 59.667 -4.33301 87 -13
s51.666 -21.834 72.999 -39.501s39 -39.334 53 -65.001s23.667 -55.5 29 -89.5h-111c-7.33301 33.333 -23 57.833 -47 73.5s-52 23.5 -84 23.5c-46 0 -81.333 -16.833 -106 -50.5s-37 -77.834 -37 -132.501c0 -25.333 3.5 -49.166 10.5 -71.499s16.667 -41.833 29 -58.5
s27.5 -29.834 45.5 -39.501s38 -14.5 60 -14.5c35.333 0 64.666 8.33301 87.999 25s37 41 41 73h115z" />
    <glyph glyph-name="guillemotleft" unicode="&#xab;" horiz-adv-x="768" 
d="M539 88l-162 285l162 282h174l-152 -282l152 -285h-174zM231 88l-163 285l163 282h175l-152 -282l152 -285h-175z" />
    <glyph glyph-name="logicalnot" unicode="&#xac;" horiz-adv-x="829" 
d="M665 119v178h-584v90h666v-268h-82z" />
    <glyph glyph-name="minus" unicode="&#xad;" horiz-adv-x="829" 
d="M63 279v143h703v-143h-703z" />
    <glyph glyph-name="registered" unicode="&#xae;" horiz-adv-x="1106" 
d="M1053 483c0 -69.333 -13.167 -134.166 -39.5 -194.499s-62.166 -113.166 -107.499 -158.499s-98.333 -81 -159 -107s-125.334 -39 -194.001 -39s-133.334 13 -194.001 39s-113.667 61.667 -159 107s-81.166 98.166 -107.499 158.499s-39.5 125.166 -39.5 194.499
c0 68.667 13.167 133.334 39.5 194.001s62.166 113.5 107.499 158.5s98.333 80.5 159 106.5s125.334 39 194.001 39s133.334 -13 194.001 -39s113.667 -61.5 159 -106.5s81.166 -97.833 107.499 -158.5s39.5 -125.334 39.5 -194.001zM907 483
c0 57.333 -9.16699 109.833 -27.5 157.5s-43.333 88.5 -75 122.5s-69 60.333 -112 79s-89.5 28 -139.5 28s-96.667 -9.33301 -140 -28s-80.833 -45 -112.5 -79s-56.5 -74.833 -74.5 -122.5s-27 -100.167 -27 -157.5c0 -58 9 -110.833 27 -158.5s42.833 -88.5 74.5 -122.5
s69.167 -60.5 112.5 -79.5s90 -28.5 140 -28.5s96.5 9.5 139.5 28.5s80.333 45.5 112 79.5s56.667 74.833 75 122.5s27.5 100.5 27.5 158.5zM662 207l-134 234.999h-57v-235h-119v555h209c35.333 0 66.666 -2.83301 93.999 -8.5s50.5 -15 69.5 -28s33.333 -30 43 -51
s14.5 -47.167 14.5 -78.5c0 -50 -13.667 -86.167 -41 -108.5s-62.666 -35.166 -105.999 -38.499l147 -242h-120zM664 605.999c0 14.667 -3.50195 26.1689 -10.502 34.502s-15.833 14.666 -26.5 18.999s-22.334 7.16602 -35.001 8.49902s-25 2 -37 2h-84v-135h96
c14.667 0 27.834 0.666992 39.501 2s21.834 4.5 30.501 9.5s15.334 12.167 20.001 21.5s7 22 7 38z" />
    <glyph glyph-name="degree" unicode="&#xb0;" horiz-adv-x="541" 
d="M266 915c28.667 0 55.5 -5.33398 80.5 -16.001s46.667 -25 65 -43s32.833 -39.333 43.5 -64s16 -51 16 -79s-5.33301 -54.333 -16 -79s-25.167 -46.167 -43.5 -64.5s-40 -32.833 -65 -43.5s-51.833 -16 -80.5 -16c-27.333 0 -53 5.16699 -77 15.5
s-45.167 24.666 -63.5 42.999s-32.833 39.833 -43.5 64.5s-16 51.334 -16 80.001c0 26.667 5.16699 52.334 15.5 77.001s24.5 46.167 42.5 64.5s39.167 33 63.5 44s50.5 16.5 78.5 16.5zM266 857.999c-20.667 0 -39.833 -3.66602 -57.5 -10.999s-33 -17.5 -46 -30.5
s-23.167 -28.333 -30.5 -46s-11 -36.834 -11 -57.501c0 -20 3.83301 -39 11.5 -57s18 -33.667 31 -47s28.333 -24 46 -32s36.5 -12 56.5 -12c40.667 0 75.667 14.333 105 43c30 30.667 45 65.667 45 105c0 20 -4 38.833 -12 56.5s-18.833 33 -32.5 46s-29.5 23.333 -47.5 31
s-37.333 11.5 -58 11.5z" />
    <glyph glyph-name="paragraph" unicode="&#xb6;" horiz-adv-x="727" 
d="M629 -244l-62 0.000976562v1356h-145v-1356h-55v805c-112 0 -199.667 20.667 -263 62c-69.333 49.333 -104 127.666 -104 234.999c-0 102 31.333 178.333 94 229c60 44 142.667 66 248 66h389v-41h-102v-1356z" />
    <glyph glyph-name="periodcentered" unicode="&#xb7;" horiz-adv-x="338" 
d="M170 520c20.667 0 37.832 -7.16699 51.499 -21.5s20.5 -30.833 20.5 -49.5c0 -20.667 -7.16699 -38.167 -21.5 -52.5s-31.166 -21.5 -50.499 -21.5c-22 0 -39.833 6.83301 -53.5 20.5s-20.5 31.5 -20.5 53.5c0 20 6.83301 36.833 20.5 50.5s31.5 20.5 53.5 20.5z" />
    <glyph glyph-name="periodcentered" unicode="&#x2219;" horiz-adv-x="338" 
d="M170 520c20.667 0 37.832 -7.16699 51.499 -21.5s20.5 -30.833 20.5 -49.5c0 -20.667 -7.16699 -38.167 -21.5 -52.5s-31.166 -21.5 -50.499 -21.5c-22 0 -39.833 6.83301 -53.5 20.5s-20.5 31.5 -20.5 53.5c0 20 6.83301 36.833 20.5 50.5s31.5 20.5 53.5 20.5z" />
    <glyph glyph-name="guillemotright" unicode="&#xbb;" horiz-adv-x="768" 
d="M539 88h-174l151 285l-151 282h174l161 -282zM229 88h-174l152 285l-152 282h174l164 -282z" />
    <glyph glyph-name="multiply" unicode="&#xd7;" horiz-adv-x="829" 
d="M639 27l-225 225l-224 -225l-98 98l223 225l-223 223l98 101l224 -225l225 225l98 -101l-225 -223l225 -225z" />
    <glyph glyph-name="divide" unicode="&#xf7;" horiz-adv-x="829" 
d="M520 625c0 -31.333 -9.5 -57 -28.5 -77s-44.833 -30 -77.5 -30c-32 0 -57.5 10 -76.5 30s-28.5 45.667 -28.5 77c0 30.667 9.5 56 28.5 76s44.5 30 76.5 30c32.667 0 58.5 -10 77.5 -30s28.5 -45.333 28.5 -76zM63 279v143h703v-143h-703zM520 74
c0 -31.333 -9.5 -57 -28.5 -77s-44.833 -30 -77.5 -30c-32 0 -57.5 10 -76.5 30s-28.5 45.667 -28.5 77c0 32 9.5 57.667 28.5 77s44.5 29 76.5 29c32.667 0 58.5 -9.66699 77.5 -29s28.5 -45 28.5 -77z" />
    <glyph glyph-name="uni0E00" unicode="&#xe00;" horiz-adv-x="205" 
 />
    <glyph glyph-name="uni0E01" unicode="&#xe01;" horiz-adv-x="831" 
d="M569 0l0.000976562 543c0 24.667 -4 46.167 -12 64.5s-18.833 33.166 -32.5 44.499s-30 19.833 -49 25.5s-39.5 8.5 -61.5 8.5c-21.333 0 -41.333 -2.83301 -60 -8.5s-34.834 -14.167 -48.501 -25.5s-24.334 -26.166 -32.001 -44.499s-11.5 -39.833 -11.5 -64.5v-543
h-201v561c0 36.667 6.83301 71.5 20.5 104.5s34.667 62.167 63 87.5s64.833 45.5 109.5 60.5s98 22.5 160 22.5c62.667 0 116.334 -7.5 161.001 -22.5s81.5 -35.167 110.5 -60.5s50.333 -54.5 64 -87.5s20.5 -67.833 20.5 -104.5v-561h-201z" />
    <glyph glyph-name="uni0E02" unicode="&#xe02;" horiz-adv-x="786" 
d="M725 238c0 -36.667 -7.00098 -70.498 -21.001 -101.498s-34.833 -57.833 -62.5 -80.5s-62.334 -40.334 -104.001 -53.001s-90.5 -19 -146.5 -19c-55.333 0 -103.666 6.33301 -144.999 19s-75.666 30.334 -102.999 53.001s-47.833 49.5 -61.5 80.5
s-20.5 64.833 -20.5 101.5v225c0 21.333 2.66699 38.833 8 52.5s12.166 25 20.499 34s17.333 16.5 27 22.5l27 17c8.33301 5.33301 15.166 11.166 20.499 17.499s8 14.5 8 24.5c0 20.667 -7.66699 35 -23 43s-37 12 -65 12h-23v133h150
c16.667 0 34.334 -2.16699 53.001 -6.5s36 -11.333 52 -21s29.5 -22.167 40.5 -37.5s17.167 -34 18.5 -56c2 -26.667 0.666992 -48.834 -4 -66.501s-11.334 -32.667 -20.001 -45s-18 -23 -28 -32l-29 -27c-9.33301 -9 -17 -19.167 -23 -30.5s-9 -25.333 -9 -42v-191
c0 -24.667 3.16699 -45.334 9.5 -62.001s15.333 -30.167 27 -40.5s25.334 -17.666 41.001 -21.999s32.834 -6.5 51.501 -6.5s36.167 2.16699 52.5 6.5s30.5 11.666 42.5 21.999s21.333 23.833 28 40.5s10 37.334 10 62.001v555h201v-581v0z" />
    <glyph glyph-name="uni0E03" unicode="&#xe03;" horiz-adv-x="786" 
d="M725 238c0 -36.667 -7.00488 -70.4951 -21.0049 -101.495s-34.833 -57.833 -62.5 -80.5s-62.334 -40.334 -104.001 -53.001s-90.5 -19 -146.5 -19c-55.333 0 -103.666 6.33301 -144.999 19s-75.666 30.334 -102.999 53.001s-47.833 49.5 -61.5 80.5
s-20.5 64.833 -20.5 101.5v221c0 18.667 2.83301 34.167 8.5 46.5s12.834 22.666 21.501 30.999s18.167 15.833 28.5 22.5s19.833 13.834 28.5 21.501s15.834 17 21.501 28s8.5 25.167 8.5 42.5h-139v168h100l72 -65l63 65h113v-137
c0 -28.667 -3.16699 -51.834 -9.5 -69.501s-14 -32.334 -23 -44.001s-19 -21.334 -30 -29.001s-21 -15.834 -30 -24.501s-16.667 -18.834 -23 -30.501s-9.5 -27.167 -9.5 -46.5v-174c0 -24.667 3.16699 -45.334 9.5 -62.001s15.333 -30.167 27 -40.5
s25.334 -17.666 41.001 -21.999s32.834 -6.5 51.501 -6.5s36.167 2.16699 52.5 6.5s30.5 11.666 42.5 21.999s21.333 23.833 28 40.5s10 37.334 10 62.001v555h201v-581v0z" />
    <glyph glyph-name="uni0E04" unicode="&#xe04;" horiz-adv-x="831" 
d="M569 0l-0.000976562 555c0 24.667 -4.5 45.334 -13.5 62.001s-20.667 30.167 -35 40.5s-30.833 17.666 -49.5 21.999s-37.667 6.5 -57 6.5c-17.333 0 -35 -2.16699 -53 -6.5s-34.333 -11.666 -49 -21.999s-26.667 -23.833 -36 -40.5s-14 -37.334 -14 -62.001v-84h172
v-178h-172v-293h-201v561c0 36.667 6.83301 71.5 20.5 104.5s34.667 62.167 63 87.5s64.833 45.5 109.5 60.5s98 22.5 160 22.5c62.667 0 116.334 -7.5 161.001 -22.5s81.5 -35.167 110.5 -60.5s50.333 -54.5 64 -87.5s20.5 -67.833 20.5 -104.5v-561h-201z" />
    <glyph glyph-name="uni0E05" unicode="&#xe05;" horiz-adv-x="831" 
d="M569 0v586c0 19.333 -4.33301 35.666 -13 48.999s-19.334 22.333 -32.001 27l-110 -76l-107 76c-12 -4.66699 -22.5 -13.667 -31.5 -27s-13.5 -29.666 -13.5 -48.999v-125h172v-174h-172v-287h-201v588c0 32.667 5.83301 63.334 17.5 92.001s27.834 54 48.501 76
s45.5 40 74.5 54s60.833 22.667 95.5 26l117 -86l121 86c34.667 -3.33301 66.5 -12 95.5 -26s53.833 -32 74.5 -54s36.667 -47.333 48 -76s17 -59.334 17 -92.001v-588h-201z" />
    <glyph glyph-name="uni0E06" unicode="&#xe06;" horiz-adv-x="831" 
d="M770 223c0 -35.333 -6.16699 -67.4951 -18.5 -96.4951s-29.5 -53.667 -51.5 -74s-48.667 -36.166 -80 -47.499s-66 -17 -104 -17c-29.333 0 -56.5 3 -81.5 9s-48.167 14.167 -69.5 24.5s-40.5 22.333 -57.5 36s-32.167 28.5 -45.5 44.5v-102h-201v459
c0 18.667 2.83301 34.167 8.5 46.5s12.834 22.666 21.501 30.999s18.167 15.833 28.5 22.5s19.833 13.834 28.5 21.501s15.834 17 21.501 28s8.5 25.167 8.5 42.5h-139v168h100l72 -65l63 65h113v-137c0 -28.667 -3.16699 -51.834 -9.5 -69.501s-14 -32.334 -23 -44.001
s-19 -21.334 -30 -29.001s-21 -15.834 -30 -24.501s-16.667 -18.834 -23 -30.501s-9.5 -27.167 -9.5 -46.5v-114c0 -19.333 4.16699 -40.166 12.5 -62.499s20.166 -42.833 35.499 -61.5s34.166 -34.167 56.499 -46.5s47.5 -18.5 75.5 -18.5c23.333 0 43 3.66699 59 11
s29 17.666 39 30.999s17.333 29.166 22 47.499s7 38.5 7 60.5v534h201v-596v0z" />
    <glyph glyph-name="uni0E07" unicode="&#xe07;" horiz-adv-x="809" 
d="M758 440c0 -65.333 -5.66602 -124.834 -16.999 -178.501s-28.833 -100 -52.5 -139s-53.834 -69.167 -90.501 -90.5s-80.334 -32 -131.001 -32h-317l-130 819h209l105 -669h72c16 0 33 4.33301 51 13s34.333 23.667 49 45s26.834 50.5 36.501 87.5s14.5 83.833 14.5 140.5
c0 45.333 -5.16699 82.833 -15.5 112.5s-24 53.167 -41 70.5s-36.667 29.5 -59 36.5s-45.833 10.5 -70.5 10.5v153h80c54.667 0 101.5 -10.167 140.5 -30.5s70.833 -47.666 95.5 -81.999s42.667 -74.5 54 -120.5s17 -94.667 17 -146z" />
    <glyph glyph-name="uni0E08" unicode="&#xe08;" horiz-adv-x="797" 
d="M748 428c-2 -65.333 -9.33203 -124.333 -21.999 -177s-31.5 -97.5 -56.5 -134.5s-56.667 -65.667 -95 -86s-83.833 -30.5 -136.5 -30.5h-270l-43 307c-4 26.667 -10 46.667 -18 60s-22.667 20 -44 20h-24v129h170c26.667 0 48.667 -7 66 -21s28 -35 32 -63l39 -282h49
c18.667 0 37.167 5.16699 55.5 15.5s34.666 26.666 48.999 48.999s25.833 51 34.5 86s13 77.5 13 127.5c0 83.333 -14.5 147.166 -43.5 191.499s-71.167 66.5 -126.5 66.5c-21.333 0 -40.333 -2.83301 -57 -8.5s-31.167 -13.167 -43.5 -22.5
s-22.666 -20.166 -30.999 -32.499s-14.5 -25.166 -18.5 -38.499h-209c4 28.667 14 58 30 88s38.667 57.167 68 81.5s66 44.166 110 59.499s95.667 23 155 23c65.333 0 121.5 -10.167 168.5 -30.5s85.333 -48.666 115 -84.999s51.167 -79.5 64.5 -129.5
s19.666 -104.333 18.999 -163z" />
    <glyph glyph-name="uni0E09" unicode="&#xe09;" horiz-adv-x="809" 
d="M547 0l0.000976562 102.001c-11.333 -14 -24.833 -27.833 -40.5 -41.5s-33.834 -25.834 -54.501 -36.501s-43.334 -19.334 -68.001 -26.001s-51.667 -10 -81 -10c-36 0 -69 5.66699 -99 17s-55.5 27.166 -76.5 47.499s-37.333 45 -49 74s-17.5 61.167 -17.5 96.5v84
c0 10.667 -0.166992 20.5 -0.5 29.5s-1.5 16.833 -3.5 23.5s-5.33301 11.834 -10 15.501s-11.334 5.5 -20.001 5.5h-11v127h164c28 0 48.667 -7 62 -21s20 -31.667 20 -53v-149c0 -22 1.83301 -42.167 5.5 -60.5s10 -34.166 19 -47.499s20.833 -23.666 35.5 -30.999
s33 -11 55 -11c26.667 0 50.5 6 71.5 18s38.833 27.167 53.5 45.5s25.834 38.666 33.501 60.999s11.5 43.833 11.5 64.5v200c0 54 -15.333 94.5 -46 121.5s-70 40.5 -118 40.5c-20 0 -39.167 -2.66699 -57.5 -8s-34.666 -13 -48.999 -23s-26.5 -22 -36.5 -36
s-16.333 -29.333 -19 -46h-205c2.66699 34.667 13 68 31 100s42.833 60 74.5 84s70 43.167 115 57.5s95.833 21.5 152.5 21.5c58.667 0 110.5 -7 155.5 -21s82.5 -33.5 112.5 -58.5s52.667 -54.667 68 -89s23 -71.833 23 -112.5v-555h-201z" />
    <glyph glyph-name="uni0E0A" unicode="&#xe0a;" horiz-adv-x="809" 
d="M756 297c0 -55.333 -9.00195 -102.169 -27.002 -140.502s-42.5 -69.5 -73.5 -93.5s-67.333 -41.333 -109 -52s-85.834 -15.667 -132.501 -15l-353 4v819h201v-669h80c26.667 0 52.334 2.5 77.001 7.5s46.5 14 65.5 27s34.167 30.333 45.5 52s17 49.167 17 82.5
c0 60.667 -17.5 106.5 -52.5 137.5s-82.5 48.167 -142.5 51.5v133c24.667 0.666992 48.834 4.5 72.501 11.5s44.5 17.667 62.5 32s32 32.666 42 54.999s14 48.833 12 79.5h207c2.66699 -27.333 0.833984 -53.666 -5.49902 -78.999s-17 -48.666 -32 -69.999
s-34.167 -40.166 -57.5 -56.499s-50 -29.166 -80 -38.499v-2c22.667 -7.33301 45 -19 67 -35s41.5 -35.667 58.5 -59s30.833 -50.333 41.5 -81s16 -64.334 16 -101.001z" />
    <glyph glyph-name="uni0E0B" unicode="&#xe0b;" horiz-adv-x="815" 
d="M764 297c0 -55.333 -8.99414 -102.17 -26.9941 -140.503s-42.5 -69.5 -73.5 -93.5s-67 -41.333 -108 -52s-84.833 -15.667 -131.5 -15l-350 4v459c0 18.667 2.16699 34 6.5 46s9.66602 22.333 15.999 31s13.166 16.5 20.499 23.5s14.166 14.5 20.499 22.5
s11.666 17.333 15.999 28s6.5 24.334 6.5 41.001h-121v168h88l72 -65l63 65h103v-141c0 -23.333 -2.16699 -42.333 -6.5 -57s-10 -27 -17 -37s-14.333 -18.5 -22 -25.5s-15 -14.5 -22 -22.5s-12.667 -17.5 -17 -28.5s-6.5 -25.167 -6.5 -42.5v-315h76
c27.333 0 53.333 2.66699 78 8s46.5 14.833 65.5 28.5s34 32.167 45 55.5s16.5 52.666 16.5 87.999c0 57.333 -11.333 100.5 -34 129.5s-61 45.167 -115 48.5v133c19.333 2 38.166 6.33301 56.499 13s34.333 16.834 48 30.501s24.167 31.5 31.5 53.5s9.66602 49 6.99902 81
h207c2.66699 -27.333 1 -54 -5 -80s-16 -49.667 -30 -71s-31.667 -40.166 -53 -56.499s-46 -28.5 -74 -36.5v-2c23.333 -7.33301 45.333 -19.166 66 -35.499s38.667 -36.333 54 -60s27.5 -50.667 36.5 -81s13.5 -63.5 13.5 -99.5z" />
    <glyph glyph-name="uni0E0C" unicode="&#xe0c;" horiz-adv-x="1315" 
d="M1253 223c0 -35.333 -5.83203 -67.5 -17.499 -96.5s-28 -53.667 -49 -74s-46.333 -36.166 -76 -47.499s-62.5 -17 -98.5 -17c-29.333 0 -56.333 3.33301 -81 10s-47 15.334 -67 26.001s-37.833 22.834 -53.5 36.501s-29.167 27.5 -40.5 41.5v-102h-201v555
c0 22 -4 41.167 -12 57.5s-19 30 -33 41s-30.5 19.167 -49.5 24.5s-39.167 8 -60.5 8c-16.667 0 -33 -2.16699 -49 -6.5s-31 -10.5 -45 -18.5s-26.167 -17.667 -36.5 -29s-18.166 -24 -23.499 -38l66 -51c-16.667 -8.66699 -31.5 -20.834 -44.5 -36.501
s-19.5 -34.167 -19.5 -55.5v-297h103v-154h-304v438c0 21.333 6.33301 42.166 19 62.499s33 35.833 61 46.5l-86 59c4 26.667 14 53.667 30 81s38.5 52 67.5 74s65 40 108 54s94.167 21 153.5 21c64.667 0 119.667 -7.66699 165 -23s82.166 -35.833 110.499 -61.5
s48.833 -55.5 61.5 -89.5s19 -69.667 19 -107v-231c0 -19.333 3.66699 -40.166 11 -62.499s18.166 -42.833 32.499 -61.5s32 -34.167 53 -46.5s44.833 -18.5 71.5 -18.5c22 0 40.333 3.66699 55 11s26.5 17.666 35.5 30.999s15.333 29.166 19 47.499s5.5 38.5 5.5 60.5v534
h200v-596v0z" />
    <glyph glyph-name="uni0E0D" unicode="&#xe0d;" horiz-adv-x="1315" 
d="M1253 57c0 -43.333 -4.66797 -83.3281 -14.001 -119.995s-26.333 -68.334 -51 -95.001s-58.667 -47.667 -102 -63s-98.666 -23 -165.999 -23h-351v158h320c54 0 94.833 10.667 122.5 32s41.5 47.666 41.5 78.999v41c-24.667 -21.333 -54.5 -38.333 -89.5 -51
s-76.167 -19 -123.5 -19c-40 0 -76.667 4.5 -110 13.5s-61.833 23.167 -85.5 42.5s-42.167 44.166 -55.5 74.499s-20 66.833 -20 109.5v319c0 22 -4 41.167 -12 57.5s-19 30 -33 41s-30.5 19.167 -49.5 24.5s-39.167 8 -60.5 8c-16.667 0 -33 -2.16699 -49 -6.5
s-31 -10.5 -45 -18.5s-26.167 -17.667 -36.5 -29s-18.166 -24 -23.499 -38l66 -51c-16.667 -8.66699 -31.5 -20.834 -44.5 -36.501s-19.5 -34.167 -19.5 -55.5v-297h103v-154h-304v438c0 21.333 6.33301 42.166 19 62.499s33 35.833 61 46.5l-86 59
c4 26.667 14 53.667 30 81s38.5 52 67.5 74s65 40 108 54s94.167 21 153.5 21c64.667 0 119.667 -7.66699 165 -23s82.166 -35.833 110.499 -61.5s48.833 -55.5 61.5 -89.5s19 -69.667 19 -107v-274c0 -26 3.5 -47.833 10.5 -65.5s16.667 -32 29 -43s27 -19 44 -24
s35.5 -7.5 55.5 -7.5c42 0 76.5 11 103.5 33s40.5 57.667 40.5 107v538h200v-762v0z" />
    <glyph glyph-name="uni0E0E" unicode="&#xe0e;" horiz-adv-x="854" 
d="M467 -307l-95.998 65.002l-95 -65h-192v151h182l105 68l104 -68h117v711c0 22 -4.16699 41.167 -12.5 57.5s-19.5 30 -33.5 41s-30.5 19.167 -49.5 24.5s-39.167 8 -60.5 8c-16 0 -32.167 -2.16699 -48.5 -6.5s-31.333 -10.5 -45 -18.5s-25.834 -17.667 -36.501 -29
s-18.334 -24 -23.001 -38l65 -51c-16.667 -8.66699 -31.334 -20.834 -44.001 -36.501s-19 -34.167 -19 -55.5v-451h-269v154h68v284c0 21.333 6.33301 42.166 19 62.499s33 35.833 61 46.5l-86 59c4 26.667 13.833 53.667 29.5 81s38 52 67 74s65.167 40 108.5 54
s94.333 21 153 21c64.667 0 119.667 -7.66699 165 -23s82.333 -35.833 111 -61.5s49.334 -55.5 62.001 -89.5s19 -69.667 19 -107v-862h-326z" />
    <glyph glyph-name="uni0E0F" unicode="&#xe0f;" horiz-adv-x="854" 
d="M537 -307l-100.998 65.002l-106 -65h-246v215h201v-84l151 90l156 -92v733c0 22 -4.16699 41.167 -12.5 57.5s-19.5 30 -33.5 41s-30.5 19.167 -49.5 24.5s-39.167 8 -60.5 8c-16 0 -32.167 -2.16699 -48.5 -6.5s-31.333 -10.5 -45 -18.5s-25.834 -17.667 -36.501 -29
s-18.334 -24 -23.001 -38l65 -51c-16.667 -8.66699 -31.334 -20.834 -44.001 -36.501s-19 -34.167 -19 -55.5v-451h-269v154h68v284c0 21.333 6.33301 42.166 19 62.499s33 35.833 61 46.5l-86 59c4 26.667 13.833 53.667 29.5 81s38 52 67 74s65.167 40 108.5 54
s94.333 21 153 21c64.667 0 119.667 -7.66699 165 -23s82.333 -35.833 111 -61.5s49.334 -55.5 62.001 -89.5s19 -69.667 19 -107v-862h-256z" />
    <glyph glyph-name="uni0E10" unicode="&#xe10;" horiz-adv-x="809" 
d="M791 881c-2 -12 -5.66602 -24.6689 -10.999 -38.002s-13.5 -26.666 -24.5 -39.999s-25 -26 -42 -38s-37.833 -22 -62.5 -30c35.333 -36 60.666 -80.167 75.999 -132.5s22.333 -110.5 21 -174.5c-2 -65.333 -9.33301 -124.333 -22 -177s-31.5 -97.5 -56.5 -134.5
s-56.667 -65.667 -95 -86s-83.833 -30.5 -136.5 -30.5h-270l-43 307c-4 26.667 -10 46.667 -18 60s-22.667 20 -44 20h-24v129h170c26.667 0 48.667 -7 66 -21s28 -35 32 -63l39 -282h49c18.667 0 37.167 5.16699 55.5 15.5s34.666 26.666 48.999 48.999s25.833 51 34.5 86
s13 77.5 13 127.5c0 83.333 -14.5 147.166 -43.5 191.499s-71.167 66.5 -126.5 66.5c-21.333 0 -40.333 -2.83301 -57 -8.5s-31.167 -13.167 -43.5 -22.5s-22.666 -20.166 -30.999 -32.499s-14.5 -25.166 -18.5 -38.499h-209c4 28.667 14 58 30 88s38.667 57.167 68 81.5
s66 44.166 110 59.499s95.667 23 155 23c25.333 0 49.333 -1.66699 72 -5s44.334 -8 65.001 -14c11.333 8.66699 20.166 18.834 26.499 30.501s10.5 22.834 12.5 33.501h234zM444.001 -307.002l-94 65l-96 -65h-193v151h183l106 68l99 -68h75v86h201v-237h-281z" />
    <glyph glyph-name="uni0E11" unicode="&#xe11;" horiz-adv-x="842" 
d="M580 0v631.001l-291 -631h-215v465c0 17.333 2.33301 31.666 7 42.999s10.5 21.166 17.5 29.499s14.5 15.833 22.5 22.5s15.5 14 22.5 22s12.833 17.333 17.5 28s7 24.334 7 41.001h-127v168h84l72 -65l63 65h115v-137c0 -21.333 -2.5 -39 -7.5 -53
s-11.167 -26.167 -18.5 -36.5s-15.5 -19.333 -24.5 -27s-17.167 -15.834 -24.5 -24.501s-13.5 -18.5 -18.5 -29.5s-7.5 -24.5 -7.5 -40.5v-59c0 -14.667 -0.833008 -32 -2.5 -52s-3.16699 -39 -4.5 -57c-2.66699 -21.333 -5 -43 -7 -65h4c4.66699 20 9.66699 39.667 15 59
c4.66699 16.667 10 33.834 16 51.501s12 33.167 18 46.5l201 424h133c40 0 72.167 -12 96.5 -36s36.5 -61 36.5 -111v-672h-200z" />
    <glyph glyph-name="uni0E12" unicode="&#xe12;" horiz-adv-x="1348" 
d="M1286 223c0 -35.333 -5.83398 -67.5049 -17.501 -96.5049s-28 -53.667 -49 -74s-46.333 -36.166 -76 -47.499s-62.834 -17 -99.501 -17c-29.333 0 -56.5 3.33301 -81.5 10s-47.5 15.334 -67.5 26.001s-37.833 22.834 -53.5 36.501s-29.167 27.5 -40.5 41.5v-102h-201v633
l-125 -109l-141 113c-6 -3.33301 -14.167 -10.333 -24.5 -21s-20.5 -25.5 -30.5 -44.5s-18.667 -42.667 -26 -71s-11 -61.5 -11 -99.5c0 -50 6.16699 -90.667 18.5 -122s28.5 -55.333 48.5 -72s43 -27.167 69 -31.5s53 -4.16602 81 0.500977v-176
c-74 -14 -137.5 -12.333 -190.5 5s-96.5 45.166 -130.5 83.499s-59 84.833 -75 139.5s-24 112.334 -24 173.001c0 65.333 9.16699 123.833 27.5 175.5s42 95.834 71 132.501s61.833 65.334 98.5 86.001s73.334 32.667 110.001 36l129 -98l98 86h228v-495
c0 -19.333 3.83301 -40.166 11.5 -62.499s18.834 -42.833 33.501 -61.5s32.5 -34.167 53.5 -46.5s44.833 -18.5 71.5 -18.5c21.333 0 39.333 3.66699 54 11s26.5 17.666 35.5 30.999s15.333 29.166 19 47.499s5.5 38.5 5.5 60.5v534h201v-596v0z" />
    <glyph glyph-name="uni0E13" unicode="&#xe13;" horiz-adv-x="1315" 
d="M1053 0l-0.000976562 102.004c-11.333 -14 -24.833 -27.833 -40.5 -41.5s-33.5 -25.834 -53.5 -36.501s-42.333 -19.334 -67 -26.001s-51.667 -10 -81 -10c-36 0 -69 5.66699 -99 17s-55.5 27.166 -76.5 47.499s-37.333 45 -49 74s-17.5 61.167 -17.5 96.5v332
c0 22 -4 41.167 -12 57.5s-19 30 -33 41s-30.5 19.167 -49.5 24.5s-39.167 8 -60.5 8c-16.667 0 -33 -2.16699 -49 -6.5s-31 -10.5 -45 -18.5s-26.167 -17.667 -36.5 -29s-18.166 -24 -23.499 -38l66 -51c-16.667 -8.66699 -31.5 -20.834 -44.5 -36.501
s-19.5 -34.167 -19.5 -55.5v-297h103v-154h-304v438c0 21.333 6.33301 42.166 19 62.499s33 35.833 61 46.5l-86 59c4 26.667 14 53.667 30 81s38.5 52 67.5 74s65 40 108 54s94.167 21 153.5 21c64.667 0 119.667 -7.66699 165 -23s82.166 -35.833 110.499 -61.5
s48.833 -55.5 61.5 -89.5s19 -69.667 19 -107v-270c0 -22 1.83301 -42.167 5.5 -60.5s10 -34.166 19 -47.499s20.833 -23.666 35.5 -30.999s33 -11 55 -11c26.667 0 50.334 6 71.001 18s38.167 27.167 52.5 45.5s25.333 38.666 33 60.999s11.5 43.833 11.5 64.5v495h200
v-819h-200z" />
    <glyph glyph-name="uni0E14" unicode="&#xe14;" horiz-adv-x="842" 
d="M580 0v658.997l-121 3c-28.667 0.666992 -56.167 -4.16602 -82.5 -14.499s-49.5 -26.166 -69.5 -47.499s-35.833 -48.5 -47.5 -81.5s-17.5 -72.167 -17.5 -117.5c0 -50 6.16699 -90.667 18.5 -122s28.5 -55.333 48.5 -72s43 -27.167 69 -31.5s53 -4.16602 81 0.500977
v-176c-76 -14 -140.667 -12.333 -194 5s-96.833 45.166 -130.5 83.499s-58 84.833 -73 139.5s-22.5 112.334 -22.5 173.001c0 61.333 8.33301 117.833 25 169.5s40.5 96.167 71.5 133.5s69 66.333 114 87s95.5 30.667 151.5 30l379 -2v-819h-200z" />
    <glyph glyph-name="uni0E15" unicode="&#xe15;" horiz-adv-x="862" 
d="M600 0l-0.000976562 632.997l-125 -109l-141 113c-6 -3.33301 -14.167 -10.333 -24.5 -21s-20.5 -25.5 -30.5 -44.5s-18.667 -42.667 -26 -71s-11 -61.5 -11 -99.5c0 -50 6.16699 -90.667 18.5 -122s28.5 -55.333 48.5 -72s43 -27.167 69 -31.5s53 -4.16602 81 0.500977
v-176c-74 -14 -137.5 -12.333 -190.5 5s-96.5 45.166 -130.5 83.499s-59 84.833 -75 139.5s-24 112.334 -24 173.001c0 65.333 9.16699 123.833 27.5 175.5s42 95.834 71 132.501s61.833 65.334 98.5 86.001s73.334 32.667 110.001 36l129 -98l98 86h228v-819h-201z" />
    <glyph glyph-name="uni0E16" unicode="&#xe16;" horiz-adv-x="831" 
d="M569 0v555.002c0 22 -4 41.167 -12 57.5s-19 30 -33 41s-30.5 19.167 -49.5 24.5s-39.167 8 -60.5 8c-16.667 0 -33 -2.16699 -49 -6.5s-31 -10.5 -45 -18.5s-26.167 -17.667 -36.5 -29s-18.166 -24 -23.499 -38l66 -51c-16.667 -8.66699 -31.5 -20.834 -44.5 -36.501
s-19.5 -34.167 -19.5 -55.5v-297h103v-154h-304v438c0 21.333 6.33301 42.166 19 62.499s33 35.833 61 46.5l-86 59c4 26.667 14 53.667 30 81s38.5 52 67.5 74s65 40 108 54s94.167 21 153.5 21c64.667 0 119.667 -7.66699 165 -23s82.166 -35.833 110.499 -61.5
s48.833 -55.5 61.5 -89.5s19 -69.667 19 -107v-555h-201z" />
    <glyph glyph-name="uni0E17" unicode="&#xe17;" horiz-adv-x="831" 
d="M569 0l-0.00195312 531.999c0 22 -2.33301 42.333 -7 61s-12 34.5 -22 47.5s-23 23.167 -39 30.5s-35.667 11 -59 11c-28 0 -53.167 -6.16699 -75.5 -18.5s-41.166 -27.833 -56.499 -46.5s-27.166 -39 -35.499 -61s-12.5 -42.667 -12.5 -62v-494h-201v819h201v-104
c13.333 16 28.5 30.833 45.5 44.5s36.167 25.667 57.5 36s44.5 18.5 69.5 24.5s52.167 9 81.5 9c38 0 72.667 -5.66699 104 -17s58 -27.166 80 -47.499s39.167 -45 51.5 -74s18.5 -61.167 18.5 -96.5v-594h-201z" />
    <glyph glyph-name="uni0E18" unicode="&#xe18;" horiz-adv-x="819" 
d="M561 573c-2 18 -7.99902 34.001 -17.999 48.001s-22.667 25.833 -38 35.5s-33 17 -53 22s-41 7.5 -63 7.5c-20.667 0 -39.667 -2.33301 -57 -7s-32.166 -10.834 -44.499 -18.501s-22 -16.667 -29 -27s-10.5 -21.5 -10.5 -33.5c0 -13.333 7.33301 -23.666 22 -30.999
s34 -13.333 58 -18s51.167 -8.83398 81.5 -12.501s61.5 -8.33398 93.5 -14.001s63.167 -13.5 93.5 -23.5s57.5 -23.833 81.5 -41.5s43.333 -39.667 58 -66s22 -59.166 22 -98.499v-295h-697v348h201v-198h295v108c0 26 -7.33301 46.5 -22 61.5s-34 26.833 -58 35.5
s-51.167 15 -81.5 19s-61.5 8.33301 -93.5 13s-63.167 10.334 -93.5 17.001s-57.5 17 -81.5 31s-43.333 32.667 -58 56s-22 53.666 -22 90.999c0 36 8.16699 69.333 24.5 100s39.833 57.5 70.5 80.5s68.167 41 112.5 54s94.833 19.5 151.5 19.5
c57.333 0 107.666 -6.66699 150.999 -20s80 -31.833 110 -55.5s53.167 -51.5 69.5 -83.5s26.166 -66.667 29.499 -104h-205z" />
    <glyph glyph-name="uni0E19" unicode="&#xe19;" horiz-adv-x="831" 
d="M569 0l-0.000976562 104.001c-13.333 -16 -28.5 -30.833 -45.5 -44.5s-36.167 -25.667 -57.5 -36s-44.5 -18.5 -69.5 -24.5s-52.167 -9 -81.5 -9c-38 0 -72.667 5.66699 -104 17s-58.166 27.166 -80.499 47.499s-39.5 45 -51.5 74s-18 61.167 -18 96.5v594h86
c35.333 0 63.333 -9.16699 84 -27.5s31 -48.166 31 -89.499v-415c0 -44 9.66699 -80 29 -108s52 -42 98 -42c28 0 53.167 6.16699 75.5 18.5s41.333 27.833 57 46.5s27.5 39.167 35.5 61.5s12 43.166 12 62.499v493h201v-819h-201z" />
    <glyph glyph-name="uni0E1A" unicode="&#xe1a;" horiz-adv-x="831" 
d="M770 258c0 -36 -6.83496 -70.668 -20.502 -104.001s-35 -62.5 -64 -87.5s-65.833 -45 -110.5 -60s-98.334 -22.5 -161.001 -22.5c-62 0 -115.333 7.5 -160 22.5s-81.167 35 -109.5 60s-49.333 54.167 -63 87.5s-20.5 68 -20.5 104v561h86
c35.333 0 63.333 -9.16699 84 -27.5s31 -48.166 31 -89.499v-426c0 -24 3.83301 -45 11.5 -63s18.334 -32.833 32.001 -44.5s29.834 -20.5 48.501 -26.5s38.667 -9 60 -9c22.667 0 43.5 2.83301 62.5 8.5s35.333 14.167 49 25.5s24.334 26 32.001 44s11.5 39.667 11.5 65
v543h201v-561v0z" />
    <glyph glyph-name="uni0E1B" unicode="&#xe1b;" horiz-adv-x="831" 
d="M770 258c0 -36 -6.83496 -70.668 -20.502 -104.001s-35 -62.5 -64 -87.5s-65.833 -45 -110.5 -60s-98.334 -22.5 -161.001 -22.5c-62 0 -115.333 7.5 -160 22.5s-81.167 35 -109.5 60s-49.333 54.167 -63 87.5s-20.5 68 -20.5 104v561h86
c35.333 0 63.333 -9.16699 84 -27.5s31 -48.166 31 -89.499v-426c0 -24 3.83301 -45 11.5 -63s18.334 -32.833 32.001 -44.5s29.834 -20.5 48.501 -26.5s38.667 -9 60 -9c22.667 0 43.5 2.83301 62.5 8.5s35.333 14.167 49 25.5s24.334 26 32.001 44s11.5 39.667 11.5 65
v748h201v-766v0z" />
    <glyph glyph-name="uni0E1C" unicode="&#xe1c;" horiz-adv-x="1004" 
d="M864 0h-213l-145 557h-4l-146 -557h-215l-127 819h283v-139h-70l54 -385h4l143 524h152l145 -524h4l74 524h186z" />
    <glyph glyph-name="uni0E1D" unicode="&#xe1d;" horiz-adv-x="1004" 
d="M864 0h-213l-145 557h-4l-146 -557h-215l-127 819h283v-139h-70l54 -385h4l143 524h152l145 -524h4l105 729h186z" />
    <glyph glyph-name="uni0E1E" unicode="&#xe1e;" horiz-adv-x="1004" 
d="M864 0h-213l-145 557h-4l-146 -557h-215l-127 819h193l74 -524h4l143 524h152l145 -524h4l72 524h188z" />
    <glyph glyph-name="uni0E1F" unicode="&#xe1f;" horiz-adv-x="1004" 
d="M864 0h-213l-145 557h-4l-146 -557h-215l-127 819h193l74 -524h4l143 524h152l145 -524h4l102 729h189z" />
    <glyph glyph-name="uni0E20" unicode="&#xe20;" horiz-adv-x="854" 
d="M592 0l0.00195312 555.002c0 22 -4.16699 41.167 -12.5 57.5s-19.5 30 -33.5 41s-30.5 19.167 -49.5 24.5s-39.167 8 -60.5 8c-16 0 -32.167 -2.16699 -48.5 -6.5s-31.333 -10.5 -45 -18.5s-25.834 -17.667 -36.501 -29s-18.334 -24 -23.001 -38l65 -51
c-16.667 -8.66699 -31.334 -20.834 -44.001 -36.501s-19 -34.167 -19 -55.5v-451h-269v154h68v284c0 21.333 6.33301 42.166 19 62.499s33 35.833 61 46.5l-86 59c4 26.667 13.833 53.667 29.5 81s38 52 67 74s65.167 40 108.5 54s94.333 21 153 21
c64.667 0 119.667 -7.66699 165 -23s82.333 -35.833 111 -61.5s49.334 -55.5 62.001 -89.5s19 -69.667 19 -107v-555h-201z" />
    <glyph glyph-name="uni0E21" unicode="&#xe21;" horiz-adv-x="831" 
d="M770 225c0 -35.333 -5.99805 -67.501 -17.998 -96.501s-29 -53.667 -51 -74s-48.667 -36.166 -80 -47.499s-66.333 -17 -105 -17c-29.333 0 -56.5 3 -81.5 9s-48.167 14.167 -69.5 24.5s-40.5 22.333 -57.5 36s-32.167 28.5 -45.5 44.5v-104h-201v819h86
c35.333 0 63.333 -9.16699 84 -27.5s31 -48.166 31 -89.499v-376c0 -19.333 4.16699 -40.166 12.5 -62.499s20.166 -42.833 35.499 -61.5s34.166 -34.167 56.499 -46.5s47.5 -18.5 75.5 -18.5c23.333 0 43 3.66699 59 11s29 17.666 39 30.999s17.333 29.166 22 47.499
s7 38.5 7 60.5v532h201v-594v0z" />
    <glyph glyph-name="uni0E22" unicode="&#xe22;" horiz-adv-x="831" 
d="M334 -4c-51.333 -0.666992 -95.5 4.16797 -132.5 14.501s-67.5 25.166 -91.5 44.499s-41.833 43.166 -53.5 71.499s-17.5 60.5 -17.5 96.5c0 32 5.16699 60.5 15.5 85.5s23.5 46.667 39.5 65s33.833 33.333 53.5 45s38.834 20.167 57.501 25.5v2
c-16 3.33301 -32.5 9.5 -49.5 18.5s-32.5 21 -46.5 36s-25.5 32.833 -34.5 53.5s-13.5 44.334 -13.5 71.001c0 28 5.5 54 16.5 78s26.667 44.833 47 62.5s45.333 31.5 75 41.5s63.5 14.667 101.5 14l131 -2v-151c-48 2 -87.333 -3.16699 -118 -15.5s-46 -33.166 -46 -62.499
c0 -17.333 5 -31.333 15 -42s22.833 -18.834 38.5 -24.501s33.167 -9 52.5 -10s38.666 -0.833008 57.999 0.5v-141c-23.333 2 -45.666 1 -66.999 -3s-40.5 -10.833 -57.5 -20.5s-30.5 -22 -40.5 -37s-15 -32.5 -15 -52.5c0 -26 5.16699 -46.5 15.5 -61.5
s24 -26.167 41 -33.5s36.167 -11.833 57.5 -13.5s42.666 -2.16699 63.999 -1.5l139 4v665h201v-819z" />
    <glyph glyph-name="uni0E23" unicode="&#xe23;" horiz-adv-x="795" 
d="M555 573c-1.33301 16 -6.16992 30.8379 -14.5029 44.5049s-19.666 25.667 -33.999 36s-31.166 18.333 -50.499 24s-40.333 8.5 -63 8.5c-21.333 0 -40.666 -2.33301 -57.999 -7s-32.333 -11 -45 -19s-22.5 -17.333 -29.5 -28s-10.5 -22 -10.5 -34
c0 -17.333 7.16699 -31 21.5 -41s33.333 -18 57 -24s50.667 -11 81 -15s61.166 -9.33301 92.499 -16s62.166 -15.334 92.499 -26.001s57.333 -25.5 81 -44.5s42.667 -43.333 57 -73s21.5 -66.5 21.5 -110.5c0 -84.667 -29.833 -149.834 -89.5 -195.501
s-150.834 -68.5 -273.501 -68.5c-114 0 -201.5 24.833 -262.5 74.5s-91.5 118.167 -91.5 205.5h205c0 -23.333 5 -43.333 15 -60s23 -30.334 39 -41.001s34 -18.334 54 -23.001s40 -7 60 -7c20.667 0 39.834 2.5 57.501 7.5s32.834 11.667 45.501 20
s22.5 18.166 29.5 29.499s10.5 23 10.5 35c0 24.667 -7.16699 44 -21.5 58s-33.333 25.167 -57 33.5s-50.667 15 -81 20l-92.5 16c-31.333 5.66699 -62.166 13 -92.499 22s-57.333 21.833 -81 38.5s-42.667 38.5 -57 65.5s-21.5 61.5 -21.5 103.5
c0 36 8.16699 69.333 24.5 100s39.666 57.5 69.999 80.5s67 41 110 54s91.5 19.5 145.5 19.5c58.667 0 110.334 -7 155.001 -21s82 -32.833 112 -56.5s52.5 -51.5 67.5 -83.5s22.5 -66 22.5 -102h-201z" />
    <glyph glyph-name="uni0E24" unicode="&#xe24;" horiz-adv-x="831" 
d="M569 -246v801.002c0 22 -4 41.167 -12 57.5s-19 30 -33 41s-30.5 19.167 -49.5 24.5s-39.167 8 -60.5 8c-16.667 0 -33 -2.16699 -49 -6.5s-31 -10.5 -45 -18.5s-26.167 -17.667 -36.5 -29s-18.166 -24 -23.499 -38l66 -51c-16.667 -8.66699 -31.5 -20.834 -44.5 -36.501
s-19.5 -34.167 -19.5 -55.5v-297h103v-154h-304v438c0 21.333 6.33301 42.166 19 62.499s33 35.833 61 46.5l-86 59c4 26.667 14 53.667 30 81s38.5 52 67.5 74s65 40 108 54s94.167 21 153.5 21c64.667 0 119.667 -7.66699 165 -23s82.166 -35.833 110.499 -61.5
s48.833 -55.5 61.5 -89.5s19 -69.667 19 -107v-801h-201z" />
    <glyph glyph-name="uni0E25" unicode="&#xe25;" horiz-adv-x="823" 
d="M561 0l0.00195312 333.999c-2 4.66699 -6.83301 10.834 -14.5 18.501s-18.334 15.167 -32.001 22.5s-30 13.5 -49 18.5s-40.5 7.5 -64.5 7.5s-46 -3.33301 -66 -10s-37.167 -15.667 -51.5 -27s-25.5 -24.833 -33.5 -40.5s-12 -32.834 -12 -51.501
c0 -27.333 6.33301 -49.833 19 -67.5s28.667 -30.834 48 -39.501s40.333 -13 63 -13s44 4 64 12v-162c-66.667 -13.333 -124.667 -14.833 -174 -4.5s-90.166 28.666 -122.499 54.999s-56.5 58.833 -72.5 97.5s-24 80 -24 124c0 38.667 7 75.834 21 111.501
s34.667 67.167 62 94.5s61.666 49.333 102.999 66s89.333 25 144 25c51.333 0 93.166 -5.5 125.499 -16.5s54.5 -21.833 66.5 -32.5v43c0 18.667 -4 35.334 -12 50.001s-18.667 27.334 -32 38.001s-29.333 18.834 -48 24.501s-38.334 8.5 -59.001 8.5
c-43.333 0 -78.5 -9.83301 -105.5 -29.5s-44.5 -43.834 -52.5 -72.501h-205c3.33301 30 13.5 60 30.5 90s40.5 57 70.5 81s66.5 43.5 109.5 58.5s92.5 22.5 148.5 22.5c60 0 112.333 -6.5 157 -19.5s81.834 -31.167 111.501 -54.5s51.667 -51 66 -83s21.5 -67.333 21.5 -106
v-573h-201z" />
    <glyph glyph-name="uni0E26" unicode="&#xe26;" horiz-adv-x="854" 
d="M592 -246l0.00195312 801.002c0 22 -4.16699 41.167 -12.5 57.5s-19.5 30 -33.5 41s-30.5 19.167 -49.5 24.5s-39.167 8 -60.5 8c-16 0 -32.167 -2.16699 -48.5 -6.5s-31.333 -10.5 -45 -18.5s-25.834 -17.667 -36.501 -29s-18.334 -24 -23.001 -38l65 -51
c-16.667 -8.66699 -31.334 -20.834 -44.001 -36.501s-19 -34.167 -19 -55.5v-451h-269v154h68v284c0 21.333 6.33301 42.166 19 62.499s33 35.833 61 46.5l-86 59c4 26.667 13.833 53.667 29.5 81s38 52 67 74s65.167 40 108.5 54s94.333 21 153 21
c64.667 0 119.667 -7.66699 165 -23s82.333 -35.833 111 -61.5s49.334 -55.5 62.001 -89.5s19 -69.667 19 -107v-801h-201z" />
    <glyph glyph-name="uni0E27" unicode="&#xe27;" horiz-adv-x="799" 
d="M754 410c0 -67.333 -6.66699 -127.332 -20 -179.999s-34.666 -97.334 -63.999 -134.001s-67.166 -64.5 -113.499 -83.5s-102.833 -28.5 -169.5 -28.5c-56 0 -105.5 7.5 -148.5 22.5s-79.167 35.5 -108.5 61.5s-51.666 56.167 -66.999 90.5s-23.333 70.833 -24 109.5h209
c1.33301 -16.667 5.33301 -32.334 12 -47.001s15.834 -27.5 27.501 -38.5s25.5 -19.667 41.5 -26s34 -9.5 54 -9.5s39.5 3.16699 58.5 9.5s36 18.833 51 37.5s27.167 45.167 36.5 79.5s14 79.833 14 136.5c0 56 -4.66699 101.167 -14 135.5s-21.5 60.833 -36.5 79.5
s-32 31.167 -51 37.5s-38.5 9.5 -58.5 9.5s-38 -3.16699 -54 -9.5s-29.833 -15 -41.5 -26s-20.834 -23.833 -27.501 -38.5s-10.667 -30.334 -12 -47.001h-209c0.666992 38.667 8.66699 75.334 24 110.001s37.666 65 66.999 91s65.5 46.5 108.5 61.5s92.5 22.5 148.5 22.5
c66.667 0 123.167 -9.66699 169.5 -29s84.166 -47.166 113.499 -83.499s50.666 -81 63.999 -134s20 -112.833 20 -179.5z" />
    <glyph glyph-name="uni0E28" unicode="&#xe28;" horiz-adv-x="831" 
d="M831 881c-1.33301 -11.333 -4.66699 -23.501 -10 -36.501s-13 -26 -23 -39s-23 -25.333 -39 -37s-35.667 -21.5 -59 -29.5c24 -24.667 41.667 -52 53 -82s17 -62 17 -96v-561h-201v555c0 24.667 -4.5 45.334 -13.5 62.001s-20.667 30.167 -35 40.5
s-30.833 17.666 -49.5 21.999s-37.667 6.5 -57 6.5c-17.333 0 -35 -2.16699 -53 -6.5s-34.333 -11.666 -49 -21.999s-26.667 -23.833 -36 -40.5s-14 -37.334 -14 -62.001v-84h172v-178h-172v-293h-201v561c0 36.667 6.83301 71.5 20.5 104.5s34.667 62.167 63 87.5
s64.833 45.5 109.5 60.5s98 22.5 160 22.5c28 0 53.667 -1.5 77 -4.5s45.333 -7.16699 66 -12.5c12.667 8.66699 22.167 18.334 28.5 29.001s10.5 21.667 12.5 33h233v0z" />
    <glyph glyph-name="uni0E29" unicode="&#xe29;" horiz-adv-x="831" 
d="M770 258c0 -36 -6.83496 -70.667 -20.502 -104s-35 -62.5 -64 -87.5s-65.833 -45 -110.5 -60s-98.334 -22.5 -161.001 -22.5c-62 0 -115.333 7.5 -160 22.5s-81.167 35 -109.5 60s-49.333 54.167 -63 87.5s-20.5 68 -20.5 104v561h201v-543c0 -24 3.83301 -45 11.5 -63
s18.334 -32.833 32.001 -44.5s29.834 -20.5 48.501 -26.5s38.667 -9 60 -9c22.667 0 43.5 2.83301 62.5 8.5s35.333 14.167 49 25.5s24.334 26 32.001 44s11.5 39.667 11.5 65v146c-9.33301 -25.333 -25.5 -46.333 -48.5 -63s-48.5 -25 -76.5 -25c-18 0 -35 3.5 -51 10.5
s-30 16.667 -42 29s-21.667 26.5 -29 42.5s-11 33 -11 51s3.66699 35 11 51s17 30.167 29 42.5s26 22 42 29s33 10.5 51 10.5c28 0 53.5 -8.33301 76.5 -25s39.167 -37.667 48.5 -63v307h201v-561v0z" />
    <glyph glyph-name="uni0E2A" unicode="&#xe2a;" horiz-adv-x="823" 
d="M823 881c-1.33301 -10.667 -4.83008 -22.833 -10.4971 -36.5s-13.667 -27.167 -24 -40.5s-22.833 -25.833 -37.5 -37.5s-31.667 -20.834 -51 -27.501c41.333 -45.333 62 -100.666 62 -165.999v-573h-201v334c-2 4.66699 -6.83301 10.834 -14.5 18.501
s-18.334 15.167 -32.001 22.5s-30 13.5 -49 18.5s-40.5 7.5 -64.5 7.5s-46 -3.33301 -66 -10s-37.167 -15.667 -51.5 -27s-25.5 -24.833 -33.5 -40.5s-12 -32.834 -12 -51.501c0 -27.333 6.33301 -49.833 19 -67.5s28.667 -30.834 48 -39.501s40.333 -13 63 -13s44 4 64 12
v-162c-66.667 -13.333 -124.667 -14.833 -174 -4.5s-90.166 28.666 -122.499 54.999s-56.5 58.833 -72.5 97.5s-24 80 -24 124c0 38.667 7 75.834 21 111.501s34.667 67.167 62 94.5s61.666 49.333 102.999 66s89.333 25 144 25c51.333 0 93.166 -5.5 125.499 -16.5
s54.5 -21.833 66.5 -32.5v43c0 18.667 -4 35.334 -12 50.001s-18.667 27.334 -32 38.001s-29.333 18.834 -48 24.501s-38.334 8.5 -59.001 8.5c-43.333 0 -78.5 -9.83301 -105.5 -29.5s-44.5 -43.834 -52.5 -72.501h-205c3.33301 30 13.5 60 30.5 90s40.5 57 70.5 81
s66.5 43.5 109.5 58.5s92.5 22.5 148.5 22.5c30 0 57.667 -1.66699 83 -5s49.333 -8 72 -14c10.667 8.66699 18.167 19.167 22.5 31.5s6.5 23.166 6.5 32.499h233v0z" />
    <glyph glyph-name="uni0E2B" unicode="&#xe2b;" horiz-adv-x="831" 
d="M569 0l0.000976562 373c0 18.667 -1.83301 36.5 -5.5 53.5s-10 31.833 -19 44.5s-21.167 22.667 -36.5 30s-34.333 11 -57 11c-24 0 -47.333 -5.83301 -70 -17.5s-42.834 -26.5 -60.501 -44.5s-31.834 -37.833 -42.501 -59.5s-16 -42.5 -16 -62.5v-328h-201v819h201v-270
c60 62.667 131 101.667 213 117h-86v153h381v-153h-164c28 -6.66699 52.333 -17.834 73 -33.501s37.834 -34.167 51.501 -55.5s23.667 -45.166 30 -71.499s9.5 -53.5 9.5 -81.5v-424h-201z" />
    <glyph glyph-name="uni0E2C" unicode="&#xe2c;" horiz-adv-x="1004" 
d="M1016 971c-2.66699 -17.333 -6.5 -34.168 -11.5 -50.501s-12.333 -31 -22 -44s-22.334 -24.167 -38.001 -33.5s-35.5 -16 -59.5 -20v-2c34 -11.333 57.833 -31 71.5 -59s17.834 -58 12.501 -90l-105 -672h-213l-145 557h-4l-146 -557h-215l-127 819h191l76 -524h4
l143 524h152l145 -524h4l49 348c2.66699 16.667 3.5 32.5 2.5 47.5s-4.16699 28.5 -9.5 40.5s-13.333 21.833 -24 29.5s-24.667 12.167 -42 13.5v105c24.667 0.666992 45 3.66699 61 9s28.833 12.833 38.5 22.5s17 21.334 22 35.001s8.83301 29.5 11.5 47.5l4 31h182z" />
    <glyph glyph-name="uni0E2D" unicode="&#xe2d;" horiz-adv-x="903" 
d="M860 410c0 -64 -9.66992 -122.168 -29.0029 -174.501s-47 -97.166 -83 -134.499s-79.333 -66.166 -130 -86.499s-107 -30.5 -169 -30.5c-67.333 0 -128.166 12.167 -182.499 36.5s-99.666 59 -135.999 104s-63 99.667 -80 164s-21.5 136.166 -13.5 215.499h391v-160h-170
c-1.33301 -29.333 3.16699 -56.333 13.5 -81s24.166 -45.834 41.499 -63.501s37.5 -31.5 60.5 -41.5s47.167 -15 72.5 -15c27.333 0 53.333 5.5 78 16.5s46.5 27.5 65.5 49.5s34 49.667 45 83s16.5 72.666 16.5 117.999c0 47.333 -6 87.5 -18 120.5
s-27.833 59.833 -47.5 80.5s-42 35.667 -67 45s-50.5 14 -76.5 14c-23.333 0 -45.166 -3.83301 -65.499 -11.5s-38.5 -17.667 -54.5 -30s-29.5 -26 -40.5 -41s-18.833 -29.833 -23.5 -44.5l-190 53c11.333 34 28.5 65.5 51.5 94.5s50.833 54.333 83.5 76
s69.834 38.667 111.501 51s86.5 18.5 134.5 18.5c62 0 118.333 -10.167 169 -30.5s94 -49.166 130 -86.499s63.667 -82.166 83 -134.499s29 -110.5 29 -174.5z" />
    <glyph glyph-name="uni0E2E" unicode="&#xe2e;" horiz-adv-x="903" 
d="M860 410c0 -64 -9.66895 -122.166 -29.002 -174.499s-47 -97.166 -83 -134.499s-79.333 -66.166 -130 -86.499s-107 -30.5 -169 -30.5c-67.333 0 -128.166 12.167 -182.499 36.5s-99.666 59 -135.999 104s-63 99.667 -80 164s-21.5 136.166 -13.5 215.499h391v-160h-170
c-1.33301 -29.333 3.16699 -56.333 13.5 -81s24.166 -45.834 41.499 -63.501s37.5 -31.5 60.5 -41.5s47.167 -15 72.5 -15c27.333 0 53.333 5.5 78 16.5s46.5 27.5 65.5 49.5s34 49.667 45 83s16.5 72.666 16.5 117.999c0 47.333 -6 87.5 -18 120.5
s-27.833 59.833 -47.5 80.5s-42 35.667 -67 45s-50.5 14 -76.5 14c-23.333 0 -45.166 -3.83301 -65.499 -11.5s-38.5 -17.667 -54.5 -30s-29.5 -26 -40.5 -41s-18.833 -29.833 -23.5 -44.5l-190 53c11.333 34 28.5 65.5 51.5 94.5s50.833 54.333 83.5 76
s69.834 38.667 111.501 51s86.5 18.5 134.5 18.5c49.333 0 95.666 -7 138.999 -21c12 8 20.833 18.333 26.5 31s9.16699 24.334 10.5 35.001h233c-1.33301 -11.333 -5 -23.833 -11 -37.5s-14.167 -27.334 -24.5 -41.001s-23.5 -26.167 -39.5 -37.5s-34.667 -20 -56 -26
c43.333 -38 76.333 -84.667 99 -140s34 -118.333 34 -189z" />
    <glyph glyph-name="uni0E2F" unicode="&#xe2f;" horiz-adv-x="774" 
d="M512 0v577.997c-8 -10 -19.5 -20.667 -34.5 -32s-33.167 -21.833 -54.5 -31.5s-45 -17.667 -71 -24s-54 -9.5 -84 -9.5c-32.667 0 -63 4 -91 12s-52.167 20 -72.5 36s-36.333 35.833 -48 59.5s-17.5 50.834 -17.5 81.501c0 22 4.33301 42.5 13 61.5
s20.834 35.333 36.501 49s34 24.5 55 32.5s44.167 12 69.5 12c13.333 0 25.833 -0.333008 37.5 -1s21.5 -1.66699 29.5 -3c9.33301 -1.33301 17.666 -2.66602 24.999 -3.99902v-115c-20.667 3.33301 -37.334 1.83301 -50.001 -4.5s-19 -16.166 -19 -29.499
c0 -14.667 7.33301 -25.5 22 -32.5s33.667 -10.5 57 -10.5c24 0 47.667 4.16699 71 12.5s44.333 20.833 63 37.5s33.834 37 45.501 61s17.5 51.667 17.5 83h201v-819h-201z" />
    <glyph glyph-name="uni0E30" unicode="&#xe30;" horiz-adv-x="494" 
d="M61 489v228h201v-84h170v-144h-371zM61 102v228h201v-84h170v-144h-371z" />
    <glyph glyph-name="uni0E31" unicode="&#xe31;" 
d="M-461 922v225h201v-92h444v-133h-645z" />
    <glyph glyph-name="uni0E32" unicode="&#xe32;" horiz-adv-x="553" 
d="M291 0l0.000976562 462.997c0 24.667 -3.5 47.834 -10.5 69.501s-17.5 40.334 -31.5 56.001s-31.667 28 -53 37s-46.333 13.5 -75 13.5h-101v180h138c57.333 0 107 -8.66699 149 -26s76.667 -41.166 104 -71.499s47.666 -66 60.999 -107s20 -84.833 20 -131.5v-483h-201z
" />
    <glyph glyph-name="uni0E33" unicode="&#xe33;" horiz-adv-x="512" 
d="M-25 1038c0 -17.333 -3.5 -33.666 -10.5 -48.999s-16.833 -28.833 -29.5 -40.5s-27.334 -20.834 -44.001 -27.501s-34.334 -10 -53.001 -10c-19.333 0 -37.166 3.33301 -53.499 10s-30.833 15.834 -43.5 27.501s-22.5 25.167 -29.5 40.5s-10.5 31.666 -10.5 48.999
c0 18 3.5 34.667 10.5 50s16.833 28.833 29.5 40.5s27.167 20.667 43.5 27s34.166 9.5 53.499 9.5c18.667 0 36.334 -3.16699 53.001 -9.5s31.334 -15.333 44.001 -27s22.5 -25.167 29.5 -40.5s10.5 -32 10.5 -50zM270 0l0.000976562 462.997
c0 24.667 -3.5 47.834 -10.5 69.501s-17.5 40.334 -31.5 56.001s-31.667 28 -53 37s-46.333 13.5 -75 13.5h-100v180h137c57.333 0 107 -8.66699 149 -26s76.667 -41.166 104 -71.499s47.666 -66 60.999 -107s20 -84.833 20 -131.5v-483h-201z" />
    <glyph glyph-name="uni0E34" unicode="&#xe34;" 
d="M-61 1001c0 -25.333 -8.66699 -44.833 -26 -58.5s-39 -20.5 -65 -20.5h-598v133h689v-54v0z" />
    <glyph glyph-name="uni0E35" unicode="&#xe35;" 
d="M-750 922v133h488v92h201v-225h-689z" />
    <glyph glyph-name="uni0E36" unicode="&#xe36;" 
d="M-27 1038c0 -16 -2.83008 -31.001 -8.49707 -45.001s-14.334 -26.167 -26.001 -36.5s-25.834 -18.666 -42.501 -24.999s-36 -9.5 -58 -9.5h-588v133h453c4 28.667 17.167 52.5 39.5 71.5s54.166 28.5 95.499 28.5c44 0 77.5 -11.5 100.5 -34.5s34.5 -50.5 34.5 -82.5z
" />
    <glyph glyph-name="uni0E37" unicode="&#xe37;" 
d="M-750 922v133h291v92h135v-92h62v92h201v-225h-689z" />
    <glyph glyph-name="uni0E38" unicode="&#xe38;" 
d="M-262 -328v129h-80v138h281v-267h-201z" />
    <glyph glyph-name="uni0E39" unicode="&#xe39;" 
d="M-61 -164c0 -27.333 -4.16602 -51.834 -12.499 -73.501s-22.333 -40 -42 -55s-45.5 -26.333 -77.5 -34s-71.333 -11.5 -118 -11.5c-49.333 0 -90.333 3.5 -123 10.5s-58.834 17.333 -78.501 31s-33.667 30.334 -42 50.001s-12.5 42.5 -12.5 68.5h-43v117h235v-103
c0 -18.667 5 -32.167 15 -40.5s23.667 -12.5 41 -12.5c18 0 32 4.16699 42 12.5s15 21.833 15 40.5v103h201v-103v0z" />
    <glyph glyph-name="uni0E3A" unicode="&#xe3a;" 
d="M-35 -178c0 -16 -3.16699 -31.167 -9.5 -45.5s-15.166 -26.666 -26.499 -36.999s-24.666 -18.666 -39.999 -24.999s-32.333 -9.5 -51 -9.5s-35.667 3.16699 -51 9.5s-28.666 14.666 -39.999 24.999s-20.166 22.666 -26.499 36.999s-9.5 29.5 -9.5 45.5
s3.16699 31.167 9.5 45.5s15.166 26.833 26.499 37.5s24.666 19 39.999 25s32.333 9 51 9s35.667 -3 51 -9s28.666 -14.333 39.999 -25s20.166 -23.167 26.499 -37.5s9.5 -29.5 9.5 -45.5z" />
    <glyph glyph-name="uni0E3F" unicode="&#xe3f;" horiz-adv-x="844" 
d="M788 279c0 -38 -4.99805 -71.3359 -14.998 -100.003s-23.5 -53.167 -40.5 -73.5s-36.5 -37.166 -58.5 -50.499s-44.833 -24 -68.5 -32s-47.5 -13.667 -71.5 -17s-46.333 -5.33301 -67 -6v-125h-66v125h-288v965h288v116h66v-116
c31.333 -1.33301 64.166 -5.33301 98.499 -12s66 -19 95 -37s52.833 -43 71.5 -75s28 -73.333 28 -124c0 -28.667 -4.66699 -55 -14 -79s-22.5 -45.333 -39.5 -64s-37.333 -34.167 -61 -46.5s-49.834 -20.833 -78.501 -25.5v-2c33.333 -3.33301 63.5 -11.166 90.5 -23.499
s50.167 -28.166 69.5 -47.499s34.333 -41.833 45 -67.5s16 -53.167 16 -82.5zM567.002 691.997c0 18.667 -2.66602 34.8311 -7.99902 48.498s-12.5 25 -21.5 34s-19.5 16 -31.5 21s-25 8.83301 -39 11.5v-223c13.333 2.66699 26 6.83398 38 12.501s22.667 12.834 32 21.501
s16.666 19.167 21.999 31.5s8 26.5 8 42.5zM401.003 812.994h-20h-76v-238h80h16v238zM596.003 286.994c0 23.333 -3.5 43.332 -10.5 59.999s-16.333 30.5 -28 41.5s-25.334 19.5 -41.001 25.5s-32.167 10.667 -49.5 14v-270c17.333 2.66699 33.833 6.83398 49.5 12.501
s29.334 13.667 41.001 24s21 23 28 38s10.5 33.167 10.5 54.5zM401.003 431.993h-4h-92v-280h92h4v280z" />
    <glyph glyph-name="uni0E40" unicode="&#xe40;" horiz-adv-x="406" 
d="M102 0v819h201v-819h-201z" />
    <glyph glyph-name="uni0E41" unicode="&#xe41;" horiz-adv-x="709" 
d="M406 0v819h200v-819h-200zM102 0v819h201v-819h-201z" />
    <glyph glyph-name="uni0E42" unicode="&#xe42;" horiz-adv-x="446" 
d="M588 1098c-10 -3.33301 -20.998 -6.33203 -32.998 -8.99902c-10.667 -2 -23.334 -3.83301 -38.001 -5.5s-30.667 -2.5 -48 -2.5c-24.667 0 -49.167 1.83301 -73.5 5.5s-46.333 6.5 -66 8.5s-35.5 1.66699 -47.5 -1s-18 -10.334 -18 -23.001
c0 -9.33301 3.16699 -18 9.5 -26l20.5 -26c7.33301 -9.33301 14.166 -20 20.499 -32s9.5 -26.333 9.5 -43v-944h-201v930c0 21.333 -4 38.666 -12 51.999s-16.667 25.5 -26 36.5s-18 22.667 -26 35s-12 28.5 -12 48.5c0 48 16.833 86.333 50.5 115s79.834 43 138.501 43
c22.667 0 42.667 -1.66699 60 -5s34.166 -6.83301 50.499 -10.5s32.833 -7.16699 49.5 -10.5s35.667 -5 57 -5s40.5 0.833008 57.5 2.5s31.167 3.5 42.5 5.5c13.333 2.66699 25 5.33398 35 8.00098v-147v0z" />
    <glyph glyph-name="uni0E43" unicode="&#xe43;" horiz-adv-x="446" 
d="M418 1124c1.33301 -22.667 -0.171875 -41.667 -4.50488 -57s-10 -28.5 -17 -39.5s-14.667 -20.833 -23 -29.5s-16.166 -17.334 -23.499 -26.001s-13.5 -18.5 -18.5 -29.5s-7.5 -24.167 -7.5 -39.5v-903h-201v915c0 28 5.33301 49.5 16 64.5s22.334 27.833 35.001 38.5
s24.334 21.167 35.001 31.5s16 25.166 16 44.499c0 13.333 -6.16699 24.833 -18.5 34.5s-29.833 14.5 -52.5 14.5h-7c-14 0 -26.333 -2.16699 -37 -6.5s-19.5 -10.166 -26.5 -17.499s-12.333 -15.666 -16 -24.999s-5.16699 -19 -4.5 -29v-9c0 -2.66699 0.333008 -5 1 -7
c0.666992 -2.66699 1.33398 -5 2.00098 -7h-170c-1.33301 5.33301 -2.33301 14.5 -3 27.5s-0.333984 25.833 0.999023 38.5c3.33301 50 25.333 89.5 66 118.5s97 43.5 169 43.5h57c40.667 0 75.334 -3.5 104.001 -10.5s52.334 -17 71.001 -30s32.5 -28.5 41.5 -46.5
s14.167 -37.667 15.5 -59z" />
    <glyph glyph-name="uni0E44" unicode="&#xe44;" horiz-adv-x="446" 
d="M399 1102c0 -20 -3.83105 -36.1689 -11.498 -48.502s-16.334 -24 -26.001 -35s-18.334 -23.167 -26.001 -36.5s-11.5 -30.666 -11.5 -51.999v-930h-201v946c0 16.667 3 30.334 9 41.001s12.833 20.167 20.5 28.5s14.5 16.666 20.5 24.999s9 18.5 9 30.5
c0 12.667 -5.5 20.834 -16.5 24.501s-26 5 -45 4s-40.833 -2.83301 -65.5 -5.5s-50.667 -4 -78 -4c-17.333 0 -33.166 0.833008 -47.499 2.5s-26.833 3.5 -37.5 5.5c-12 2.66699 -23 5.33398 -33 8.00098v147c10 -2.66699 21.667 -5.33398 35 -8.00098
c11.333 -2 25.5 -3.83301 42.5 -5.5s36.167 -2.5 57.5 -2.5c20.667 0 39.167 1.16699 55.5 3.5s32.166 5 47.499 8s30.833 5.66699 46.5 8s33.5 3.5 53.5 3.5c64.667 0 114.5 -13.5 149.5 -40.5s52.5 -66.167 52.5 -117.5z" />
    <glyph glyph-name="uni0E45" unicode="&#xe45;" horiz-adv-x="553" 
d="M291 -246l0.000976562 708.997c0 24.667 -3.5 47.834 -10.5 69.501s-17.5 40.334 -31.5 56.001s-31.667 28 -53 37s-46.333 13.5 -75 13.5h-101v180h138c57.333 0 107 -8.66699 149 -26s76.667 -41.166 104 -71.499s47.666 -66 60.999 -107s20 -84.833 20 -131.5v-729
h-201z" />
    <glyph glyph-name="uni0E46" unicode="&#xe46;" horiz-adv-x="799" 
d="M537 -246l0.00195312 908.003l-127 -119l-115 96c-10.667 0 -21.834 -4.33301 -33.501 -13s-17.5 -23.334 -17.5 -44.001c0 -13.333 2.66699 -23.833 8 -31.5s12.166 -13.334 20.499 -17.001s17.5 -5.5 27.5 -5.5s19.333 0.666992 28 2v-151l-27 -2
c-83.333 -6 -147.5 7.33301 -192.5 40s-67.5 89 -67.5 169c0 30 3.5 59.167 10.5 87.5s19.167 53.166 36.5 74.499s40.5 38.5 69.5 51.5s65.167 19.5 108.5 19.5h29l121 -96l112 96h209v-1065h-200z" />
    <glyph glyph-name="uni0E47" unicode="&#xe47;" 
d="M-276 922l-88.999 59l-92 -59h-239v110c0 24.667 4.16699 47.667 12.5 69s21.333 40 39 56s40.667 28.5 69 37.5s62.5 13.5 102.5 13.5h342v-94h-283c-32.667 0 -55.834 -6.16699 -69.501 -18.5s-20.5 -26.5 -20.5 -42.5v-25h35l104 62l105 -62h129v-106h-145z" />
    <glyph glyph-name="uni0E48" unicode="&#xe48;" 
d="M-262 1198v184h201v-184h-201z" />
    <glyph glyph-name="uni0E49" unicode="&#xe49;" 
d="M-358 1198l0.00195312 49c0 6.66699 -0.166992 12.667 -0.5 18s-1.83301 9.83301 -4.5 13.5s-6.83398 6.5 -12.501 8.5s-13.5 3 -23.5 3h-21v111h141c45.333 0 77.166 -7.5 95.499 -22.5s27.5 -34.833 27.5 -59.5v-10h215v-111h-417z" />
    <glyph glyph-name="uni0E4A" unicode="&#xe4a;" 
d="M-137 1198v92l-74 -53l-74 53v-92h-172v74c0 40 12 71.167 36 93.5s61.333 33.5 112 33.5h24l74 -51l72 51h26c100 0 150 -31.333 150 -94v-11h82v-96h-256z" />
    <glyph glyph-name="uni0E4B" unicode="&#xe4b;" 
d="M-72 1264v-66h-180v66h-74v92h74v65h180v-65h74v-92h-74z" />
    <glyph glyph-name="uni0E4C" unicode="&#xe4c;" 
d="M-63 1200c-25.333 0 -42.333 -4.5 -51 -13.5s-13 -22.167 -13 -39.5v-21h-203v52c0 27.333 4.66699 49.666 14 66.999s23 30.833 41 40.5s40 16.334 66 20.001s55.333 5.5 88 5.5h96v-111h-38z" />
    <glyph glyph-name="uni0E4D" unicode="&#xe4d;" 
d="M-25 1038c0 -17.333 -3.5 -33.666 -10.5 -48.999s-16.833 -28.833 -29.5 -40.5s-27.334 -20.834 -44.001 -27.501s-34.334 -10 -53.001 -10c-19.333 0 -37.166 3.33301 -53.499 10s-30.833 15.834 -43.5 27.501s-22.5 25.167 -29.5 40.5s-10.5 31.666 -10.5 48.999
c0 18 3.5 34.667 10.5 50s16.833 28.833 29.5 40.5s27.167 20.667 43.5 27s34.166 9.5 53.499 9.5c18.667 0 36.334 -3.16699 53.001 -9.5s31.334 -15.333 44.001 -27s22.5 -25.167 29.5 -40.5s10.5 -32 10.5 -50z" />
    <glyph glyph-name="uni0E4E" unicode="&#xe4e;" 
d="M80 1438c-17.333 1.33301 -32.666 2.33496 -45.999 3.00195s-24.666 1 -33.999 1c-29.333 0 -56.833 -1.66699 -82.5 -5s-48 -8.5 -67 -15.5s-34.167 -15.833 -45.5 -26.5s-17 -23 -17 -37c0 -19.333 9.66699 -31 29 -35s50 -6 92 -6v-94
c-13.333 1.33301 -25.166 2.33301 -35.499 3s-19.833 1 -28.5 1c-26.667 0 -51.334 -2 -74.001 -6s-42.5 -9.5 -59.5 -16.5s-30.333 -15.667 -40 -26s-14.5 -21.5 -14.5 -33.5c0 -19.333 16.333 -29 49 -29c20.667 0 40.167 3.16699 58.5 9.5s37.833 14.166 58.5 23.499
l49 -82c-23.333 -12.667 -50 -23.667 -80 -33s-60 -14 -90 -14c-5.33301 1.33301 -8.33301 2 -9 2h-7h-11c-38 4 -68.667 16 -92 36s-35 45 -35 75c0 28 8 53.167 24 75.5s38 40.166 66 53.499c23.333 14 50.666 22 81.999 24c-28.667 14 -43 38.667 -43 74
c0 14 3.16699 28.167 9.5 42.5s15.166 28 26.499 41s24.833 24.833 40.5 35.5s32.5 19.334 50.5 26.001c36 15.333 75.333 24.666 118 27.999s87 5 133 5h25v-100v0z" />
    <glyph glyph-name="uni0E4F" unicode="&#xe4f;" horiz-adv-x="983" 
d="M911 410c0 -58 -11 -112.5 -33 -163.5s-52 -95.5 -90 -133.5s-82.333 -68 -133 -90s-105 -33 -163 -33s-112.5 11 -163.5 33s-95.5 52 -133.5 90s-68 82.5 -90 133.5s-33 105.5 -33 163.5s11 112.333 33 163s52 95 90 133s82.5 68 133.5 90s105.5 33 163.5 33
s112.333 -11 163 -33s95 -52 133 -90s68 -82.333 90 -133s33 -105 33 -163zM850 410c0 48.667 -9.5 94.834 -28.5 138.501s-44.667 81.667 -77 114s-70.333 58 -114 77s-89.834 28.5 -138.501 28.5c-49.333 0 -95.833 -9.5 -139.5 -28.5s-81.667 -44.667 -114 -77
s-58 -70.333 -77 -114s-28.5 -89.834 -28.5 -138.501c0 -49.333 9.5 -95.833 28.5 -139.5s44.667 -81.667 77 -114s70.333 -58 114 -77s90.167 -28.5 139.5 -28.5c48.667 0 94.834 9.5 138.501 28.5s81.667 44.667 114 77s58 70.333 77 114s28.5 90.167 28.5 139.5zM748 410
c0 -35.333 -6.66699 -68.666 -20 -99.999s-31.666 -58.5 -54.999 -81.5s-50.5 -41.167 -81.5 -54.5s-64.167 -20 -99.5 -20s-68.666 6.66699 -99.999 20s-58.5 31.5 -81.5 54.5s-41.167 50.167 -54.5 81.5s-20 64.666 -20 99.999s6.66699 68.5 20 99.5
s31.5 58.167 54.5 81.5s50.167 41.666 81.5 54.999s64.666 20 99.999 20s68.5 -6.66699 99.5 -20s58.167 -31.666 81.5 -54.999s41.666 -50.5 54.999 -81.5s20 -64.167 20 -99.5z" />
    <glyph glyph-name="uni0E50" unicode="&#xe50;" horiz-adv-x="815" 
d="M774 307c0 -44 -7.5 -85.333 -22.5 -124s-37.833 -72.167 -68.5 -100.5s-68.834 -50.833 -114.501 -67.5s-99.167 -25 -160.5 -25s-114.833 8.33301 -160.5 25s-83.667 39.167 -114 67.5s-53 61.833 -68 100.5s-22.5 80 -22.5 124c0 44.667 7.5 86.334 22.5 125.001
s37.667 72.334 68 101.001s68.333 51.167 114 67.5s99.167 24.5 160.5 24.5s114.833 -8.16699 160.5 -24.5s83.834 -38.833 114.501 -67.5s53.5 -62.334 68.5 -101.001s22.5 -80.334 22.5 -125.001zM567 307c0 22.667 -3.5 43.5 -10.5 62.5s-17.333 35.5 -31 49.5
s-30.334 24.833 -50.001 32.5s-42.167 11.5 -67.5 11.5c-26 0 -48.833 -3.83301 -68.5 -11.5s-36.167 -18.5 -49.5 -32.5s-23.333 -30.5 -30 -49.5s-10 -39.833 -10 -62.5c0 -22 3.33301 -42.5 10 -61.5s16.667 -35.333 30 -49s29.833 -24.5 49.5 -32.5s42.5 -12 68.5 -12
c25.333 0 47.833 4 67.5 12s36.334 18.833 50.001 32.5s24 30 31 49s10.5 39.5 10.5 61.5z" />
    <glyph glyph-name="uni0E51" unicode="&#xe51;" horiz-adv-x="815" 
d="M772 303c-1.33301 -50.667 -12.666 -95.668 -33.999 -135.001s-50.833 -72.666 -88.5 -99.999s-82.667 -48.5 -135 -63.5s-109.833 -23.167 -172.5 -24.5c-36 -1.33301 -68.333 -0.833008 -97 1.5s-53.334 5.16602 -74.001 8.49902c-24 3.33301 -45.667 7.33301 -65 12
l-47 158c26 -8.66699 53.333 -16 82 -22c24.667 -5.33301 52.334 -9.66602 83.001 -12.999s62.334 -4 95.001 -2c40 2 75.333 8.16699 106 18.5s56.5 23.666 77.5 39.999s37 34.833 48 55.5s16.5 42.667 16.5 66c1.33301 50 -13.667 88.5 -45 115.5s-74.333 40.5 -129 40.5
c-20 0 -38.667 -1.83301 -56 -5.5s-32.5 -9 -45.5 -16s-23.167 -15.5 -30.5 -25.5s-11 -21 -11 -33c0 -22.667 12.5 -38.5 37.5 -47.5s60.167 -6.83301 105.5 6.5l-6 -158l-33 -6c-43.333 -8 -83.833 -10 -121.5 -6s-70.5 14.5 -98.5 31.5s-50.167 40.5 -66.5 70.5
s-24.5 67 -24.5 111c0 39.333 9.33301 74.166 28 104.499s44 55.833 76 76.5s69.667 36.334 113 47.001s89.666 16 138.999 16c63.333 0 118.666 -7.66699 165.999 -23s86.5 -37.166 117.5 -65.499s53.833 -62.333 68.5 -102s21.667 -83.5 21 -131.5z" />
    <glyph glyph-name="uni0E52" unicode="&#xe52;" horiz-adv-x="1059" 
d="M66 0l-0.00585938 597.997c0 28.667 -6.5 55.167 -19.5 79.5s-31.167 46.166 -54.5 65.499l174 86c12 -7.33301 24 -16 36 -26s22.5 -21.667 31.5 -35s16.333 -28.166 22 -44.499s8.5 -34.166 8.5 -53.499v-520h531v313l-101 -92l-106 92
c-9.33301 0 -18.166 -1.33301 -26.499 -4s-15.666 -7.16699 -21.999 -13.5s-11.333 -14.666 -15 -24.999s-5.16699 -22.833 -4.5 -37.5c0 -14 2.66699 -25.333 8 -34s12.833 -15.167 22.5 -19.5s20.834 -7 33.501 -8s26.334 -0.833008 41.001 0.5v-132l-41 -4
c-46 -4.66699 -85.333 -4.66699 -118 0s-59.5 14.667 -80.5 30s-36.667 36 -47 62s-15.833 58.333 -16.5 97c-2 43.333 1.83301 80.333 11.5 111s23.834 55.834 42.501 75.501s41.334 34 68.001 43s56 13.5 88 13.5h66l96 -83l88 83h209v-618h-925z" />
    <glyph glyph-name="uni0E53" unicode="&#xe53;" horiz-adv-x="831" 
d="M561 0l0.00292969 446.004l-115 -94l-129 99c-6.66699 -0.666992 -13.5 -3.83398 -20.5 -9.50098s-13.333 -14.5 -19 -26.5s-10.334 -27.5 -14.001 -46.5s-5.5 -42.167 -5.5 -69.5c0 -32.667 3.5 -58.834 10.5 -78.501s16.333 -34.5 28 -44.5s25.5 -16.167 41.5 -18.5
s33 -2.83301 51 -1.5v-156l-59 -4c-59.333 -4 -107.5 1 -144.5 15s-66.167 34.667 -87.5 62s-35.833 60.166 -43.5 98.499s-11.5 80.166 -11.5 125.499c0 54 5.66699 101 17 141s27.166 73 47.499 99s44.666 45.333 72.999 58s59.5 19 93.5 19h58l112 -82l101 82h219v-614
h-203z" />
    <glyph glyph-name="uni0E54" unicode="&#xe54;" horiz-adv-x="860" 
d="M469 451c-75.333 0 -130.661 -13.332 -165.994 -39.999s-53 -64 -53 -112c0 -26.667 4 -48.834 12 -66.501s20.167 -31.834 36.5 -42.501s36.666 -18.5 60.999 -23.5s52.5 -7.83301 84.5 -8.5c-16 11.333 -29.167 25.833 -39.5 43.5s-15.5 37.167 -15.5 58.5
c0 17.333 3.66699 33.666 11 48.999s17.333 28.666 30 39.999s27.5 20.166 44.5 26.499s34.833 9.5 53.5 9.5c19.333 0 37.666 -3.16699 54.999 -9.5s32.5 -15.166 45.5 -26.499s23.167 -24.666 30.5 -39.999s11 -31.666 11 -48.999c0 -21.333 -5.33301 -40.833 -16 -58.5
s-24.667 -32.167 -42 -43.5h185v-158h-414c-52 0 -99 5.5 -141 16.5s-77.833 28.333 -107.5 52s-52.334 54 -68.001 91s-23.5 81.5 -23.5 133.5c0 48.667 8.16699 92.334 24.5 131.001s40.166 71.667 71.499 99s69.666 48.333 114.999 63s96.666 22 153.999 22h204v211h203
v-368h-346z" />
    <glyph glyph-name="uni0E55" unicode="&#xe55;" horiz-adv-x="883" 
d="M469 451c-75.333 0 -130.661 -13.3301 -165.994 -39.9971s-53 -64 -53 -112c0 -26.667 4 -48.834 12 -66.501s20.167 -31.834 36.5 -42.501s36.666 -18.5 60.999 -23.5s52.5 -7.83301 84.5 -8.5c-16 11.333 -29.167 25.833 -39.5 43.5s-15.5 37.167 -15.5 58.5
c0 17.333 3.66699 33.666 11 48.999s17.333 28.666 30 39.999s27.5 20.166 44.5 26.499s34.833 9.5 53.5 9.5c19.333 0 37.666 -3.16699 54.999 -9.5s32.5 -15.166 45.5 -26.499s23.167 -24.666 30.5 -39.999s11 -31.666 11 -48.999c0 -21.333 -5.33301 -40.833 -16 -58.5
s-24.667 -32.167 -42 -43.5h185v-158h-414c-52 0 -99 5.5 -141 16.5s-77.833 28.333 -107.5 52s-52.334 54 -68.001 91s-23.5 81.5 -23.5 133.5c0 84.667 24.167 153.667 72.5 207s117.166 87.333 206.499 102c-15.333 10.667 -26.833 23.667 -34.5 39
s-11.5 31.666 -11.5 48.999c0 16 3.66699 31.333 11 46s17.666 27.5 30.999 38.5s29.5 19.833 48.5 26.5s40.167 10 63.5 10s44.666 -3.33301 63.999 -10s35.833 -15.5 49.5 -26.5s24.167 -23.833 31.5 -38.5s11 -30 11 -46c0 -15.333 -3.5 -30 -10.5 -44
s-16.5 -26.667 -28.5 -38h88v211h203v-368h-369z" />
    <glyph glyph-name="uni0E56" unicode="&#xe56;" horiz-adv-x="815" 
d="M774 305c0 -58 -8.33203 -107.002 -24.999 -147.002s-40.834 -72.5 -72.501 -97.5s-70 -43 -115 -54s-95.5 -16.5 -151.5 -16.5c-106.667 0 -189.334 19.833 -248.001 59.5s-90 105.167 -94 196.5h202c4.66699 -38 20.667 -65.333 48 -82s60 -25 98 -25
c44 0 80.167 14.167 108.5 42.5s42.5 69.5 42.5 123.5c0 48 -13.333 86.333 -40 115s-65 43.667 -115 45c-18.667 0 -35.5 -2 -50.5 -6s-28.5 -8.83301 -40.5 -14.5s-22.167 -12 -30.5 -19s-15.166 -13.5 -20.499 -19.5h-204v190c0 30 -6.5 57.167 -19.5 81.5
s-31.167 46.166 -54.5 65.499l174 86c12 -7.33301 24 -16.166 36 -26.499s22.5 -22.166 31.5 -35.499s16.333 -28.166 22 -44.499s8.5 -33.833 8.5 -52.5v-131c10 11.333 22.167 21.833 36.5 31.5s30 18 47 25s35 12.5 54 16.5s38.167 6 57.5 6
c57.333 0 106 -7.66699 146 -23s72.5 -36.833 97.5 -64.5s43.167 -60.667 54.5 -99s17 -80.5 17 -126.5z" />
    <glyph glyph-name="uni0E57" unicode="&#xe57;" horiz-adv-x="1106" 
d="M1114 743c-22.667 -17.333 -40.3311 -36.668 -52.998 -58.001s-19 -47.666 -19 -78.999v-383c0 -78.667 -22.333 -136.167 -67 -172.5s-109.667 -53.833 -195 -52.5l-219 2v449l-115 -97l-129 101c-6.66699 -0.666992 -13.5 -3.83398 -20.5 -9.50098
s-13.333 -14.5 -19 -26.5s-10.334 -27.5 -14.001 -46.5s-5.5 -42.167 -5.5 -69.5c0 -33.333 3.5 -59.833 10.5 -79.5s16.333 -34.667 28 -45s25.5 -16.666 41.5 -18.999s33 -2.83301 51 -1.5v-156l-59 -4c-59.333 -4 -107.5 1 -144.5 15s-66.167 34.667 -87.5 62
s-35.833 60.5 -43.5 99.5s-11.5 81.167 -11.5 126.5c0 54 5.66699 101 17 141s27.166 73 47.499 99s44.666 45.333 72.999 58s59.5 19 93.5 19h58l112 -84l101 84h219v-458c28.667 1.33301 49.834 10.666 63.501 27.999s20.5 41.333 20.5 72v389
c0 25.333 3.16699 47.833 9.5 67.5s14.333 36.834 24 51.501s20.5 27.167 32.5 37.5s24 18.833 36 25.5l164 -86v0z" />
    <glyph glyph-name="uni0E58" unicode="&#xe58;" horiz-adv-x="831" 
d="M545 0l-121.001 103.999l-102 -104l-70 -2c-28 -1.33301 -54.5 4.33398 -79.5 17.001s-47.167 32 -66.5 58s-34.666 58.333 -45.999 97s-17 83.667 -17 135c0 44.667 5.5 85.5 16.5 122.5s29.167 68.833 54.5 95.5s58.5 47.5 99.5 62.5s91.5 22.5 151.5 22.5h196v211h203
v-368h-340c-62 0 -106.5 -11.667 -133.5 -35s-40.5 -60.333 -40.5 -111c0 -24 2 -43.667 6 -59s9 -27.5 15 -36.5s12.5 -15.5 19.5 -19.5s13.167 -6.66699 18.5 -8l117 105l135 -107v127h203v-307h-219z" />
    <glyph glyph-name="uni0E59" unicode="&#xe59;" horiz-adv-x="932" 
d="M963 739c-25.333 -15.333 -43.668 -33.165 -55.001 -53.498s-17 -45.5 -17 -75.5v-161h-182c-19.333 0 -35.166 -7.33301 -47.499 -22s-21.166 -32.334 -26.499 -53.001s-7.5 -42.167 -6.5 -64.5s5.16699 -41.5 12.5 -57.5l111 -252h-205l-189 449
c-16 0 -30.5 -2 -43.5 -6s-24.333 -11.5 -34 -22.5s-17.167 -25.833 -22.5 -44.5s-8 -43 -8 -73c0 -32 2.66699 -57.833 8 -77.5s13.833 -35 25.5 -46s26.167 -18.333 43.5 -22s38 -4.83398 62 -3.50098v-154l-59 -4c-60 -4 -108.667 1 -146 15s-66.5 34.833 -87.5 62.5
s-35.167 61 -42.5 100s-11 81.5 -11 127.5c0 104.667 21.667 182 65 232s113 75 209 75h175l40 -92l7 14c10 24 24.5 43 43.5 57s45.5 21 79.5 21h24v68c0 19.333 3 37.333 9 54s14.333 31.667 25 45s22.667 24.5 36 33.5s27.666 15.833 42.999 20.5l164 -90v0z" />
    <glyph glyph-name="uni0E5A" unicode="&#xe5a;" horiz-adv-x="1013" 
d="M805 0v819h149v-819h-149zM512 0v577.997c-8 -10 -19.5 -20.667 -34.5 -32s-33.167 -21.833 -54.5 -31.5s-45 -17.667 -71 -24s-54 -9.5 -84 -9.5c-32.667 0 -63 4 -91 12s-52.167 20 -72.5 36s-36.333 35.833 -48 59.5s-17.5 50.834 -17.5 81.501
c0 22 4.33301 42.5 13 61.5s20.834 35.333 36.501 49s34 24.5 55 32.5s44.167 12 69.5 12c13.333 0 25.833 -0.333008 37.5 -1s21.5 -1.66699 29.5 -3c9.33301 -1.33301 17.666 -2.66602 24.999 -3.99902v-115c-20.667 3.33301 -37.334 1.83301 -50.001 -4.5
s-19 -16.166 -19 -29.499c0 -14.667 7.33301 -25.5 22 -32.5s33.667 -10.5 57 -10.5c24 0 47.667 4.16699 71 12.5s44.333 20.833 63 37.5s33.834 37 45.501 61s17.5 51.667 17.5 83h201v-819h-201z" />
    <glyph glyph-name="uni0E5B" unicode="&#xe5b;" horiz-adv-x="1393" 
d="M1368 434c0 -8 -5.83887 -15.8359 -17.5059 -23.5029s-24.167 -12.167 -37.5 -13.5l-103 -10c-4 -13.333 -10.333 -26.166 -19 -38.499s-18.667 -18.5 -30 -18.5c-10 0 -20.333 7.33301 -31 22c-3.33301 3.33301 -7 9 -11 17s-9.66699 18 -17 30
c-7.33301 -24.667 -16.333 -46.167 -27 -64.5s-21.667 -27.5 -33 -27.5c-9.33301 0 -19.666 9.5 -30.999 28.5s-24.666 44.5 -39.999 76.5c-5.33301 -19.333 -10.333 -36.166 -15 -50.499s-8.66699 -25.5 -12 -33.5c-12 -27.333 -25 -41 -39 -41
c-12.667 0 -28.334 21 -47.001 63c-5.33301 11.333 -10.166 23 -14.499 35s-9.16602 23.667 -14.499 35c-4 -18.667 -9.33301 -37.334 -16 -56.001s-14 -35.5 -22 -50.5s-16 -27.333 -24 -37s-15.333 -14.5 -22 -14.5c-22.667 0 -37.667 11.667 -45 35
c-3.33301 12.667 -5.5 23.167 -6.5 31.5s-2.16699 16.166 -3.5 23.499c-2 14 -8 34.667 -18 62c-11.333 -46 -26.5 -88.667 -45.5 -128s-40.833 -72 -65.5 -98c-66.667 -74.667 -142.334 -112 -227.001 -112c-41.333 0 -78.666 8.16699 -111.999 24.5s-62 39.166 -86 68.499
s-42.5 64.833 -55.5 106.5s-19.5 87.834 -19.5 138.501c0 99.333 23.333 180.333 70 243c23.333 34 50.166 59 80.499 75s63.5 24 99.5 24c28.667 0 56 -6.16699 82 -18.5s48.667 -29.666 68 -51.999s34.666 -48.833 45.999 -79.5s17 -64 17 -100
c0 -29.333 -3.33301 -55.666 -10 -78.999s-16.167 -43.333 -28.5 -60s-26.833 -29.5 -43.5 -38.5s-35 -13.5 -55 -13.5c-16 0 -31.5 3.5 -46.5 10.5s-28.167 16.5 -39.5 28.5s-20.333 26.167 -27 42.5s-10 33.833 -10 52.5c0 18 3.33301 35 10 51s15.667 30.333 27 43
s24.166 22.667 38.499 30s29.5 11 45.5 11l21 -2c-23.333 53.333 -54.333 80 -93 80c-21.333 0 -41.166 -6.33301 -59.499 -19s-34.166 -30.334 -47.499 -53.001s-24 -49.667 -32 -81s-12 -65.666 -12 -102.999s4.5 -70.666 13.5 -99.999s21.5 -54.166 37.5 -74.499
s35.167 -36 57.5 -47s46.833 -16.5 73.5 -16.5c31.333 0 60.833 8.16699 88.5 24.5s52.5 39.5 74.5 69.5s41 66.5 57 109.5s28 91.167 36 144.5c5.33301 33.333 11.833 55.333 19.5 66s20.167 16 37.5 16c6.66699 0 14.167 -4 22.5 -12s16.833 -18.667 25.5 -32
s17.334 -29 26.001 -47s17 -37.333 25 -58l12 73c10 38.667 23.667 58 41 58c12.667 0 27.834 -10.833 45.501 -32.5s33.167 -50.5 46.5 -86.5c10.667 54.667 25.667 82 45 82c15.333 0 30.833 -9.83301 46.5 -29.5s31.5 -45.5 47.5 -77.5
c8.66699 25.333 16.834 44.666 24.501 57.999s18.167 20 31.5 20c9.33301 0 19.5 -6.16699 30.5 -18.5s21.167 -27.166 30.5 -44.499c10.667 21.333 26.334 30.666 47.001 27.999l111 -14c12 0 23.833 -3.33301 35.5 -10s17.5 -13.667 17.5 -21zM433.994 448.997
c0 40.667 -16.333 60.999 -49 60.999c-12.667 0 -24 -5.83301 -34 -17.5s-15 -26.167 -15 -43.5s4.83301 -31.666 14.5 -42.999s21.167 -17 34.5 -17c32.667 0 49 20 49 60z" />
    <glyph glyph-name="zerowidthnonjoiner" unicode="&#x200c;" 
 />
    <glyph glyph-name="zerowidthjoiner" unicode="&#x200d;" 
 />
    <glyph glyph-name="endash" unicode="&#x2013;" horiz-adv-x="829" 
d="M63 279v143h703v-143h-703z" />
    <glyph glyph-name="emdash" unicode="&#x2014;" horiz-adv-x="1659" 
d="M63 279v143h1532v-143h-1532z" />
    <glyph glyph-name="quoteleft" unicode="&#x2018;" horiz-adv-x="375" 
d="M92 530l-0.000976562 207c0 30 4.83301 58.167 14.5 84.5s23 49.5 40 69.5s37.333 36.333 61 49s49.5 21 77.5 25v-88c-35.333 -12.667 -59.166 -30.5 -71.499 -53.5s-18.5 -51.167 -18.5 -84.5h90v-209h-193z" />
    <glyph glyph-name="quoteright" unicode="&#x2019;" horiz-adv-x="375" 
d="M285 758c0 -30 -4.83301 -57.833 -14.5 -83.5s-23 -48.5 -40 -68.5s-37.333 -36.667 -61 -50s-49.5 -22 -77.5 -26v91c34.667 10.667 58 27.667 70 51s18 52 18 86h-88v207h193v-207v0z" />
    <glyph glyph-name="quotedblleft" unicode="&#x201c;" horiz-adv-x="627" 
d="M360 530l-0.000976562 207c0 30 4.83301 58.167 14.5 84.5s23 49.5 40 69.5s37.333 36.333 61 49s49.5 21 77.5 25v-88c-35.333 -12.667 -59.166 -30.5 -71.499 -53.5s-18.5 -51.167 -18.5 -84.5h90v-209h-193zM73.999 530l0.000976562 207c0 30 4.66699 58.167 14 84.5
s22.5 49.5 39.5 69.5s37.167 36.333 60.5 49s48.666 21 75.999 25v-88c-34 -12.667 -57.167 -30.5 -69.5 -53.5s-18.5 -51.167 -18.5 -84.5h88v-209h-190z" />
    <glyph glyph-name="quotedblright" unicode="&#x201d;" horiz-adv-x="627" 
d="M553 758c0 -30 -4.83301 -57.833 -14.5 -83.5s-23 -48.5 -40 -68.5s-37.333 -36.667 -61 -50s-49.5 -22 -77.5 -26v91c35.333 11.333 59.333 28.5 72 51.5s19 51.5 19 85.5h-91v207h193v-207zM264 758c0 -30 -4.66797 -57.833 -14.001 -83.5s-22.5 -48.5 -39.5 -68.5
s-37.167 -36.667 -60.5 -50s-48.666 -22 -75.999 -26v91c34 11.333 57.167 28.5 69.5 51.5s18.5 51.5 18.5 85.5h-88v207h190v-207z" />
    <glyph glyph-name="bullet" unicode="&#x2022;" horiz-adv-x="758" 
d="M686 410c0 -42.667 -8 -82.667 -24 -120s-37.833 -70 -65.5 -98s-60.167 -50 -97.5 -66s-77.333 -24 -120 -24s-82.667 8 -120 24s-69.833 38 -97.5 66s-49.5 60.667 -65.5 98s-24 77.333 -24 120s8 82.667 24 120s37.833 69.833 65.5 97.5s60.167 49.5 97.5 65.5
s77.333 24 120 24s82.667 -8 120 -24s69.833 -37.833 97.5 -65.5s49.5 -60.167 65.5 -97.5s24 -77.333 24 -120z" />
    <glyph glyph-name="ellipsis" unicode="&#x2026;" horiz-adv-x="1382" 
d="M1055 0v193h194v-193h-194zM594 0v193h194v-193h-194zM133 0v193h195v-193h-195z" />
    <glyph glyph-name="thothannobasethai" unicode="&#xf700;" horiz-adv-x="809" 
d="M791 881c-2 -12 -5.66602 -24.6689 -10.999 -38.002s-13.5 -26.666 -24.5 -39.999s-25 -26 -42 -38s-37.833 -22 -62.5 -30c35.333 -36 60.666 -80.167 75.999 -132.5s22.333 -110.5 21 -174.5c-2 -65.333 -9.33301 -124.333 -22 -177s-31.5 -97.5 -56.5 -134.5
s-56.667 -65.667 -95 -86s-83.833 -30.5 -136.5 -30.5h-270l-43 307c-4 26.667 -10 46.667 -18 60s-22.667 20 -44 20h-24v129h170c26.667 0 48.667 -7 66 -21s28 -35 32 -63l39 -282h49c18.667 0 37.167 5.16699 55.5 15.5s34.666 26.666 48.999 48.999s25.833 51 34.5 86
s13 77.5 13 127.5c0 83.333 -14.5 147.166 -43.5 191.499s-71.167 66.5 -126.5 66.5c-21.333 0 -40.333 -2.83301 -57 -8.5s-31.167 -13.167 -43.5 -22.5s-22.666 -20.166 -30.999 -32.499s-14.5 -25.166 -18.5 -38.499h-209c4 28.667 14 58 30 88s38.667 57.167 68 81.5
s66 44.166 110 59.499s95.667 23 155 23c25.333 0 49.333 -1.66699 72 -5s44.334 -8 65.001 -14c11.333 8.66699 20.166 18.834 26.499 30.501s10.5 22.834 12.5 33.501h234v0z" />
    <glyph glyph-name="saraileftthai" unicode="&#xf701;" 
d="M-344 1001c0 -25.333 -8.66797 -44.833 -26.001 -58.5s-38.666 -20.5 -63.999 -20.5h-475v133h565v-54v0z" />
    <glyph glyph-name="saraiileftthai" unicode="&#xf702;" 
d="M-909 922v133h364v92h201v-225h-565z" />
    <glyph glyph-name="saraueleftthai" unicode="&#xf703;" 
d="M-309 1038c0 -16 -2.83008 -31.001 -8.49707 -45.001s-14.334 -26.167 -26.001 -36.5s-25.834 -18.666 -42.501 -24.999s-36 -9.5 -58 -9.5h-465v133h329c4.66699 28.667 18.167 52.5 40.5 71.5s54.166 28.5 95.499 28.5c44 0 77.5 -11.5 100.5 -34.5
s34.5 -50.5 34.5 -82.5z" />
    <glyph glyph-name="saraueeleftthai" unicode="&#xf704;" 
d="M-909 922v133h168v92h135v-92h61v92h201v-225h-565z" />
    <glyph glyph-name="maieklowleftthai" unicode="&#xf705;" 
d="M-537 922v245h201v-245h-201z" />
    <glyph glyph-name="maitholowleftthai" unicode="&#xf706;" 
d="M-510 922v79c0 12.667 -3.16699 23 -9.5 31s-16.833 12 -31.5 12h-18v123h135c42 0 73.333 -9.16699 94 -27.5s31 -41.833 31 -70.5v-14h309v-133h-510z" />
    <glyph glyph-name="maitrilowleftthai" unicode="&#xf707;" 
d="M-383 922l-0.00195312 94.002c0 8 -2 14.667 -6 20c-2 2.66699 -4 4.66699 -6 6l-88 -71l-101 71c-2 -1.33301 -4 -3.33301 -6 -6c-4 -5.33301 -6 -11.333 -6 -18v-96h-170v110c0 24 3.83301 44.5 11.5 61.5s18.334 31 32.001 42s29.834 19 48.501 24
s39.334 7.5 62.001 7.5h49l80 -53l73 53h50c20.667 0 40.167 -2.16699 58.5 -6.5s34.166 -11.333 47.499 -21s23.833 -22.334 31.5 -38.001s11.5 -34.834 11.5 -57.501v-12h211v-110h-383z" />
    <glyph glyph-name="maichattawalowleftthai" unicode="&#xf708;" 
d="M-414 1008v-86h-180v86h-102v125h102v86h180v-86h103v-125h-103z" />
    <glyph glyph-name="thanthakhatlowleftthai" unicode="&#xf709;" 
d="M-373 995c-17.333 0 -31.167 -3.99902 -41.5 -11.999s-15.5 -20.333 -15.5 -37v-24h-201v63c0 24.667 4 46.167 12 64.5s19.167 33.166 33.5 44.499s31.5 19.833 51.5 25.5s41.667 8.5 65 8.5h162v-133h-66z" />
    <glyph glyph-name="maieklowrightthai" unicode="&#xf70a;" 
d="M-262 922v245h201v-245h-201z" />
    <glyph glyph-name="maitholowrightthai" unicode="&#xf70b;" 
d="M-391 922v79c0 12.667 -3.16699 23 -9.5 31s-16.833 12 -31.5 12h-19v123h136c42 0 73.333 -9.16699 94 -27.5s31 -41.833 31 -70.5v-14h272v-133h-473z" />
    <glyph glyph-name="maitrilowrightthai" unicode="&#xf70c;" 
d="M-289 922l-0.00195312 94.002c0 8 -2 14.667 -6 20c-2 2.66699 -4 4.66699 -6 6l-88 -71l-100 71c-2.66699 -1.33301 -5 -3.33301 -7 -6c-4 -5.33301 -6 -11.333 -6 -18v-96h-170v110c0 24 3.83301 44.5 11.5 61.5s18.334 31 32.001 42s29.834 19 48.501 24
s39.334 7.5 62.001 7.5h49l80 -53l74 53h49c20.667 0 40.167 -2.16699 58.5 -6.5s34.166 -11.333 47.499 -21s23.833 -22.334 31.5 -38.001s11.5 -34.834 11.5 -57.501v-12h115v-110h-287z" />
    <glyph glyph-name="maichattawalowrightthai" unicode="&#xf70d;" 
d="M-164 1008v-86h-180v86h-102v125h102v86h180v-86h103v-125h-103z" />
    <glyph glyph-name="thanthakhatlowrightthai" unicode="&#xf70e;" 
d="M-80 995c-17.333 0 -31.167 -3.99902 -41.5 -11.999s-15.5 -20.333 -15.5 -37v-24h-201v63c0 24.667 4 46.167 12 64.5s19.167 33.166 33.5 44.499s31.5 19.833 51.5 25.5s41.667 8.5 65 8.5h162v-133h-66z" />
    <glyph glyph-name="yoyingnobasethai" unicode="&#xf70f;" horiz-adv-x="1315" 
d="M1253 258c0 -36 -6.16797 -70.666 -18.501 -103.999s-32.166 -62.5 -59.499 -87.5s-62.833 -45 -106.5 -60s-96.834 -22.5 -159.501 -22.5c-62 0 -114.5 7.5 -157.5 22.5s-78 35 -105 60s-46.667 54.167 -59 87.5s-18.5 68 -18.5 104v297c0 22 -4 41.167 -12 57.5
s-19 30 -33 41s-30.5 19.167 -49.5 24.5s-39.167 8 -60.5 8c-16.667 0 -33 -2.16699 -49 -6.5s-31 -10.5 -45 -18.5s-26.167 -17.667 -36.5 -29s-18.166 -24 -23.499 -38l66 -51c-16.667 -8.66699 -31.5 -20.834 -44.5 -36.501s-19.5 -34.167 -19.5 -55.5v-297h103v-154
h-304v438c0 21.333 6.33301 42.166 19 62.499s33 35.833 61 46.5l-86 59c4 26.667 14 53.667 30 81s38.5 52 67.5 74s65 40 108 54s94.167 21 153.5 21c64.667 0 119.667 -7.66699 165 -23s82.166 -35.833 110.499 -61.5s48.833 -55.5 61.5 -89.5s19 -69.667 19 -107v-289
c0 -48 12.833 -82.167 38.5 -102.5s59.167 -30.5 100.5 -30.5c20.667 0 39.834 2.16699 57.501 6.5s33 11.833 46 22.5s23 24.334 30 41.001s10.5 37.667 10.5 63v553h200v-561v0z" />
    <glyph glyph-name="maihanakatleftthai" unicode="&#xf710;" 
d="M-723 922v225h201v-92h522v-133h-723z" />
    <glyph glyph-name="nikhahitleftthai" unicode="&#xf711;" 
d="M-291 1038c0 -17.333 -3.5 -33.666 -10.5 -48.999s-16.833 -28.833 -29.5 -40.5s-27.334 -20.834 -44.001 -27.501s-34.334 -10 -53.001 -10c-19.333 0 -37.166 3.33301 -53.499 10s-30.833 15.834 -43.5 27.501s-22.5 25.167 -29.5 40.5s-10.5 31.666 -10.5 48.999
c0 18 3.5 34.667 10.5 50s16.833 28.833 29.5 40.5s27.167 20.667 43.5 27s34.166 9.5 53.499 9.5c18.667 0 36.334 -3.16699 53.001 -9.5s31.334 -15.333 44.001 -27s22.5 -25.167 29.5 -40.5s10.5 -32 10.5 -50z" />
    <glyph glyph-name="maitaikhuleftthai" unicode="&#xf712;" 
d="M-461 922l-88.001 59l-92 -59h-240v110c0 24.667 4.16699 47.667 12.5 69s21.5 40 39.5 56s41.167 28.5 69.5 37.5s62.5 13.5 102.5 13.5h342v-94h-283c-33.333 0 -56.666 -6.16699 -69.999 -18.5s-20 -26.5 -20 -42.5v-25h35l104 62l105 -62h129v-106h-146z" />
    <glyph glyph-name="maiekupperleftthai" unicode="&#xf713;" 
d="M-545 1198v184h201v-184h-201z" />
    <glyph glyph-name="maithoupperleftthai" unicode="&#xf714;" 
d="M-641 1198l0.00195312 49c0 6.66699 -0.166992 12.667 -0.5 18s-1.83301 9.83301 -4.5 13.5s-6.83398 6.5 -12.501 8.5s-13.5 3 -23.5 3h-20v111h141c45.333 0 77.166 -7.5 95.499 -22.5s27.5 -34.833 27.5 -59.5v-10h215v-111h-418z" />
    <glyph glyph-name="maitriupperleftthai" unicode="&#xf715;" 
d="M-410 1198v92l-73 -53l-74 53v-92h-172v74c0 40 12 71.167 36 93.5s61 33.5 111 33.5h25l74 -51l71 51h27c99.333 0 149 -31.333 149 -94v-11h82v-96h-256z" />
    <glyph glyph-name="maichattawaupperleftthai" unicode="&#xf716;" 
d="M-354 1264v-66h-181v66h-73v92h73v65h181v-65h73v-92h-73z" />
    <glyph glyph-name="thanthakhatupperleftthai" unicode="&#xf717;" 
d="M-340 1200c-24.667 0 -41.333 -4.5 -50 -13.5s-13 -22.167 -13 -39.5v-21h-203v52c0 27.333 4.66699 49.666 14 66.999s23 30.833 41 40.5s40 16.334 66 20.001s55.333 5.5 88 5.5h96v-111h-39z" />
    <glyph glyph-name="saraulowthai" unicode="&#xf718;" 
d="M-262 -614v129h-80v137h281v-266h-201z" />
    <glyph glyph-name="sarauulowthai" unicode="&#xf719;" 
d="M-61 -451c0 -27.333 -4.16602 -51.833 -12.499 -73.5s-22.333 -40 -42 -55s-45.5 -26.333 -77.5 -34s-71.333 -11.5 -118 -11.5c-49.333 0 -90.333 3.5 -123 10.5s-58.834 17.333 -78.501 31s-33.667 30.5 -42 50.5s-12.5 42.667 -12.5 68h-43v117h235v-103
c0 -18 5 -31.333 15 -40s23.667 -13 41 -13c18 0 32 4.33301 42 13s15 22 15 40v103h201v-103v0z" />
    <glyph glyph-name="phinthulowthai" unicode="&#xf71a;" 
d="M-61 -465c0 -16 -3.16895 -30.999 -9.50195 -44.999s-15.166 -26.333 -26.499 -37s-24.833 -19.167 -40.5 -25.5s-32.5 -9.5 -50.5 -9.5c-18.667 0 -35.667 3.16699 -51 9.5s-28.666 14.833 -39.999 25.5s-20.166 23 -26.499 37s-9.5 29 -9.5 45
c0 33.333 11.833 61.166 35.5 83.499s54.167 33.5 91.5 33.5c18 0 34.833 -3 50.5 -9s29.167 -14.333 40.5 -25s20.166 -23 26.499 -37s9.5 -29.333 9.5 -46z" />
    <glyph glyph-name="lochula.short" unicode="&#xf71d;" 
 />
    <glyph glyph-name="fongmanfunnuthai" unicode="&#xf880;" 
 />
    <glyph glyph-name=".null" 
 />
    <glyph glyph-name="nonmarkingreturn" horiz-adv-x="614" 
 />
    <glyph glyph-name="uni0E33_1" horiz-adv-x="553" 
d="M291 0l0.000976562 462.997c0 24.667 -3.5 47.834 -10.5 69.501s-17.5 40.334 -31.5 56.001s-31.667 28 -53 37s-46.333 13.5 -75 13.5h-101v180h138c57.333 0 107 -8.66699 149 -26s76.667 -41.166 104 -71.499s47.666 -66 60.999 -107s20 -84.833 20 -131.5v-483h-201z
M-290.999 1038c0 -17.333 -3.5 -33.666 -10.5 -48.999s-16.833 -28.833 -29.5 -40.5s-27.334 -20.834 -44.001 -27.501s-34.334 -10 -53.001 -10c-19.333 0 -37.166 3.33301 -53.499 10s-30.833 15.834 -43.5 27.501s-22.5 25.167 -29.5 40.5s-10.5 31.666 -10.5 48.999
c0 18 3.5 34.667 10.5 50s16.833 28.833 29.5 40.5s27.167 20.667 43.5 27s34.166 9.5 53.499 9.5c18.667 0 36.334 -3.16699 53.001 -9.5s31.334 -15.333 44.001 -27s22.5 -25.167 29.5 -40.5s10.5 -32 10.5 -50z" />
    <glyph glyph-name="uni0E4E_1" 
d="M-100 1438c-17.333 1.33301 -32.666 2.33496 -45.999 3.00195s-24.666 1 -33.999 1c-29.333 0 -56.833 -1.66699 -82.5 -5s-48 -8.5 -67 -15.5s-34.167 -15.833 -45.5 -26.5s-17 -23 -17 -37c0 -19.333 9.66699 -31 29 -35s50 -6 92 -6v-94
c-13.333 1.33301 -25.166 2.33301 -35.499 3s-19.833 1 -28.5 1c-26.667 0 -51.334 -2 -74.001 -6s-42.5 -9.5 -59.5 -16.5s-30.333 -15.667 -40 -26s-14.5 -21.5 -14.5 -33.5c0 -19.333 16.333 -29 49 -29c20.667 0 40.167 3.16699 58.5 9.5s37.833 14.166 58.5 23.499
l49 -82c-23.333 -12.667 -50 -23.667 -80 -33s-60 -14 -90 -14c-5.33301 1.33301 -8.33301 2 -9 2h-7h-11c-38 4 -68.667 16 -92 36s-35 45 -35 75c0 28 8 53.167 24 75.5s38 40.166 66 53.499c23.333 14 50.666 22 81.999 24c-28.667 14 -43 38.667 -43 74
c0 14 3.16699 28.167 9.5 42.5s15.166 28 26.499 41s24.833 24.833 40.5 35.5s32.5 19.334 50.5 26.001c36 15.333 75.333 24.666 118 27.999s87 5 133 5h25v-100v0z" />
    <glyph glyph-name="F881" 
 />
    <glyph glyph-name="F882" 
 />
    <glyph glyph-name="saraueesp2" 
d="M-645 1198v184h201v-184h-201zM-909 922v133h168v92h135v-92h61v92h201v-225h-565z" />
    <glyph glyph-name="saraisp" 
d="M-233 1047c0 -26 -8.66699 -45.833 -26 -59.5s-39 -20.5 -65 -20.5h-598v133h689v-53v0z" />
    <glyph glyph-name="saraiisp" 
d="M-922 967v133h488v92h201v-225h-689z" />
    </font>
</defs>
</svg>
